<?xml version="1.0" encoding="UTF-8"?>
<svg id="uuid-8fdff917-9265-45b6-b86a-9a76d3bfb5f4" data-name="Layer 2" xmlns="http://www.w3.org/2000/svg" width="228.5" height="228.5" viewBox="0 0 228.5 228.5">
  <defs>
    <style>
      .uuid-bee67380-cafe-4636-98ae-80c8cf194745 {
        fill: #fff;
      }

      .uuid-1ee3c327-1d5c-45af-94c8-d30de99c15d2 {
        fill: #c2a06b;
      }

      .uuid-d17e0488-6fc0-43c4-8b94-70027f1a9d66 {
        fill: #140d09;
      }
    </style>
  </defs>
  <g id="uuid-83ce3f1c-4f71-4ea6-9532-13726fccc9ff" data-name="Capa 1">
    <g>
      <circle class="uuid-bee67380-cafe-4636-98ae-80c8cf194745" cx="114.2" cy="114.2" r="51.8"/>
      <g>
        <path class="uuid-d17e0488-6fc0-43c4-8b94-70027f1a9d66" d="M89.1,45.3c-.3-1.1-.1-2.1,.5-3,.7-1,2-1.8,3.7-2.3,1.5-.4,2.8-.5,3.9-.1,1.3,.4,2.1,1.2,2.5,2.5,.4,1.5,0,2.8-1.2,3.9,1.8,.1,3,1,3.4,2.7,.3,1.2,.2,2.3-.4,3.3-.7,1.2-2.1,2.1-3.9,2.6-1.7,.5-3.1,.5-4.3,0-1.3-.5-2.2-1.4-2.6-2.8-.5-1.7,0-3,1.5-4.1-1.6-.3-2.6-1.2-3.1-2.7Zm4,.7c.5,.2,1.1,.2,1.9,0,.7-.2,1.2-.5,1.6-1,.3-.4,.4-.9,.2-1.5-.2-.6-.5-1-1-1.2-.5-.2-1.1-.2-1.8,0-.7,.2-1.2,.5-1.6,1-.3,.4-.4,1-.3,1.5,.2,.6,.5,.9,1,1.1Zm1.6,6.4c.6,.2,1.3,.2,2,0,.8-.2,1.3-.6,1.7-1.1,.4-.5,.5-1.1,.3-1.6-.4-1.4-1.4-1.8-3.2-1.3-1.7,.5-2.4,1.4-2,2.8,.2,.6,.5,1,1.1,1.2Z"/>
        <path class="uuid-d17e0488-6fc0-43c4-8b94-70027f1a9d66" d="M103.6,45.4c-.2-2.3,.1-4.2,.9-5.5,.9-1.6,2.3-2.4,4.3-2.6,1.7-.1,3.1,.4,4.2,1.5,1.2,1.3,1.9,3.2,2.1,5.9,.2,2.3-.1,4.2-.9,5.5-.9,1.6-2.3,2.4-4.3,2.6-3.8,.3-5.9-2.2-6.2-7.3Zm7.9,3.3c.4-.7,.5-2,.3-3.8-.1-1.6-.4-2.8-.7-3.5-.4-.8-1.1-1.2-2.1-1.2-.9,0-1.5,.4-1.8,1.1-.4,.7-.5,2-.4,3.9,.1,1.6,.3,2.8,.7,3.4,.4,.8,1.2,1.2,2.2,1.1,.9,0,1.5-.4,1.8-1.1Z"/>
        <path class="uuid-d17e0488-6fc0-43c4-8b94-70027f1a9d66" d="M123.2,52.4c-.1,.2-.3,.3-.5,.3l-2.5-.5c-.2,0-.3-.2-.2-.4l7.8-13c.1-.2,.3-.2,.5-.2l1.2,.2c.8,.2,1.3,.4,1.6,.9,.3,.4,.6,1.1,.7,2.1l1.8,12.8c0,.2,0,.3-.3,.3l-2.5-.5c-.3,0-.4-.2-.4-.4l-.4-3.2-5.1-1-1.6,2.8Zm6.4-4.6l-.6-5.3-2.6,4.6,3.3,.7Z"/>
        <path class="uuid-d17e0488-6fc0-43c4-8b94-70027f1a9d66" d="M137.4,56.3c0,.2-.2,.3-.5,.2l-2.2-1c-.2,0-.3-.2-.2-.5l5.8-13c0-.2,.2-.3,.5-.2l1,.4c.5,.2,.9,.5,1.2,.9,.2,.3,.4,.8,.5,1.4l1.2,8.9,3.6-8c0-.2,.2-.3,.5-.2h.2c.8,.5,1.3,.9,1.5,1.5,.2,.6,0,1.3-.3,2.1l-4.9,10.8c0,.2-.2,.3-.5,.2l-2.1-.9c-.2-.1-.4-.3-.4-.6l-1.3-10.1-3.6,7.9Zm5.3-14.9c.8-1.6,1.8-2.1,3-1.6,.5,.2,1,.6,1.6,1.3,.5,.5,.9,.8,1.1,1,.3,.1,.6,0,.8-.3,.1-.2,.3-.2,.4-.1l1.2,.5c.2,0,.2,.2,.1,.4-.5,.8-1,1.4-1.4,1.6-.5,.2-1,.2-1.7-.1-.4-.2-.9-.6-1.5-1.2-.5-.5-.9-.8-1.1-.9-.3-.1-.6,0-.9,.3-.1,.2-.3,.2-.5,.2l-1.2-.5c-.2,0-.2-.2-.1-.4Z"/>
        <path class="uuid-d17e0488-6fc0-43c4-8b94-70027f1a9d66" d="M149.4,61c-.3-1.9,.4-3.9,1.9-5.9,1.4-1.7,2.9-2.8,4.6-3.2,2-.5,3.9,0,5.8,1.5,1.6,1.3,2.6,2.8,2.9,4.5,.3,2-.4,4-2,6-1.4,1.7-2.9,2.8-4.6,3.2-2,.4-3.9,0-5.8-1.6-1.7-1.3-2.6-2.8-2.9-4.5Zm10.7,.9c1.9-2.5,1.9-4.5-.2-6.2-2.1-1.6-4.1-1.2-6,1.3-1.9,2.5-1.9,4.5,.2,6.1,2.1,1.6,4.1,1.2,6-1.3Z"/>
        <path class="uuid-d17e0488-6fc0-43c4-8b94-70027f1a9d66" d="M162.3,67.8c0,0,0,.2,0,.3,0,1.8,.4,3.4,1.6,4.8,1.1,1.4,2.1,1.7,2.9,1.1,.3-.2,.4-.6,.4-1,0-.4-.3-1.2-.7-2.2-.5-1.3-.9-2.4-.9-3-.2-1.5,.3-2.8,1.5-3.8,1-.8,2.1-1.1,3.3-.9,1.3,.3,2.4,1,3.5,2.3,.8,1,1.5,2,1.9,3.1,.2,.6,.2,1,0,1.4-.2,.4-.5,.7-1.1,1l-.6,.3c-.2,.1-.4,0-.5,0,0,0-.1-.2-.2-.4-.3-1.3-.9-2.4-1.7-3.4-.9-1.1-1.8-1.4-2.5-.8-.3,.3-.5,.6-.4,1.1,0,.4,.3,1.2,.7,2.2,.6,1.4,.9,2.4,1,3,.2,1.5-.3,2.8-1.5,3.7-1,.9-2.2,1.2-3.3,1.1-1.4-.2-2.7-1-3.9-2.4-1.1-1.3-1.7-2.6-1.7-3.9,0-1.3,.4-2.4,1.3-3.1,.3-.3,.6-.3,.7,0Z"/>
        <path class="uuid-d17e0488-6fc0-43c4-8b94-70027f1a9d66" d="M176.7,89.6c.3-.8,1-1.3,1.9-1.7,.8-.3,1.6-.3,2.3,0,.8,.3,1.4,.9,1.7,1.8,.3,.8,.3,1.6,0,2.3-.3,.8-1,1.4-1.9,1.7-.8,.3-1.6,.3-2.3,0-.8-.3-1.4-.9-1.7-1.9-.3-.8-.3-1.6,0-2.3Z"/>
        <path class="uuid-d17e0488-6fc0-43c4-8b94-70027f1a9d66" d="M179.2,116.9c0,1.3-.6,1.9-1.8,1.9h-.7c-.3,0-.5-.1-.5-.4v-8.6c0-.2,0-.3,.3-.4h14.2c.2-.1,.3,0,.4,.2v6.9c0,1.3-.5,1.9-1.7,1.9h-.7c-.3,0-.5-.1-.5-.4v-5.6h-3.1v3.6c0,1.3-.6,1.9-1.8,1.9h-.7c-.3,0-.4-.1-.4-.4v-5.1h-3.2v4.4Z"/>
        <path class="uuid-d17e0488-6fc0-43c4-8b94-70027f1a9d66" d="M177.8,127.4c-.2,1.2-.9,1.8-2,1.6h-.7c-.3-.2-.4-.3-.4-.6l1.2-7.7c0-.2,.2-.3,.4-.3l14,2.3c.2,0,.3,.2,.3,.4v.3c-.2,.9-.5,1.5-1,1.8-.5,.3-1.2,.4-2.1,.3l-9.2-1.5-.6,3.5Z"/>
        <path class="uuid-d17e0488-6fc0-43c4-8b94-70027f1a9d66" d="M172.8,135.8c-.2-.2-.2-.3-.2-.5l1-2.3c0-.2,.2-.2,.4,0l11.1,10.3c.2,.1,.2,.3,.1,.5l-.5,1.1c-.3,.7-.7,1.2-1.2,1.4-.5,.2-1.2,.3-2.2,.3l-12.9-.9c-.2,0-.3-.2-.2-.4l1-2.4c.1-.2,.3-.4,.5-.3l3.2,.3,2.1-4.8-2.4-2.2Zm3.2,7.2l5.3,.5-3.9-3.5-1.3,3.1Z"/>
        <path class="uuid-d17e0488-6fc0-43c4-8b94-70027f1a9d66" d="M166.1,153.4c-.7,1-1.5,1.2-2.5,.5l-.6-.4c-.3-.2-.3-.4-.1-.6l4.4-6.4c.1-.2,.3-.2,.5,0l11.7,8.1c.2,.1,.2,.3,0,.5l-.2,.2c-.5,.7-1,1.1-1.6,1.2-.6,0-1.3-.1-2-.7l-7.7-5.3-2,2.9Z"/>
        <path class="uuid-d17e0488-6fc0-43c4-8b94-70027f1a9d66" d="M159.8,156.8c-.2-.2-.2-.3,0-.5l1.7-1.8c.2-.2,.3-.2,.5,0l10.2,9.9c.2,.2,.2,.3,0,.5l-4.8,5c-.9,.9-1.7,.9-2.6,0l-.5-.5c-.2-.2-.2-.4,0-.6l3.9-4-2.3-2.2-2.4,2.5c-.9,.9-1.7,.9-2.6,0l-.5-.4c-.2-.2-.2-.4,0-.6l3.5-3.6-4-3.9Z"/>
        <path class="uuid-d17e0488-6fc0-43c4-8b94-70027f1a9d66" d="M153.3,162.9c0-.2,0-.4,.1-.5l2-1.5c.2-.1,.3,0,.4,.1l4.3,14.5c0,.2,0,.4-.2,.5l-1,.7c-.6,.5-1.2,.7-1.7,.6-.5,0-1.2-.3-2-.9l-10.6-7.3c-.2-.1-.2-.3,0-.4l2.1-1.5c.2-.2,.4-.2,.6,0l2.6,1.9,4.2-3-1-3.1Zm-1,7.8l4.3,3.1-1.6-5-2.7,2Z"/>
        <path class="uuid-d17e0488-6fc0-43c4-8b94-70027f1a9d66" d="M145.1,171.6c0,0-.1,0-.3,0-.7-.1-1.3,0-1.7,.1-1,.5-1.3,1.2-.8,2.3l4.5,9.5c0,.2,0,.4-.2,.5h-.2c-.8,.5-1.5,.6-2,.3-.5-.2-1-.8-1.4-1.6l-3.5-7.5c-.5-1.2-.7-2.2-.5-3.1,.3-1,1-1.8,2.2-2.4,.8-.4,1.5-.5,2.2-.3,.8,.2,1.4,.7,1.8,1.4,.2,.3,.1,.6-.1,.7Z"/>
        <path class="uuid-d17e0488-6fc0-43c4-8b94-70027f1a9d66" d="M134.4,174.7c1.7,1,2.9,2.7,3.5,5.2,.5,2.2,.4,4-.3,5.6-.9,1.9-2.5,3.1-4.8,3.6-2,.5-3.8,.3-5.3-.6-1.7-1-2.9-2.8-3.5-5.2-.5-2.2-.4-4,.3-5.6,.9-1.8,2.5-3,4.8-3.6,2-.5,3.8-.3,5.3,.6Zm-7.3,7.9c.8,3.1,2.4,4.3,4.9,3.7,2.5-.6,3.4-2.5,2.7-5.5-.8-3-2.4-4.2-4.9-3.6-2.5,.6-3.4,2.5-2.7,5.5Z"/>
        <path class="uuid-d17e0488-6fc0-43c4-8b94-70027f1a9d66" d="M117.2,176.6c0-.2,.1-.4,.3-.4h2.4c.2,0,.4,0,.4,.3l.2,14.2c0,.2-.1,.3-.3,.4h-5.2c-1.8,0-3.2-.3-4.2-1.1-1-.8-1.6-2.1-1.6-3.7,0-1.1,.2-2,.7-2.9,.5-.8,1.2-1.4,2.2-1.8l-3.1-5c0,0,0-.2,0-.2,0,0,.1-.1,.2-.1h2.8c.3,0,.5,0,.7,.3l2.5,4.6h2v-4.6Zm-2.6,7.5c-1.5,0-2.2,.7-2.2,2.2,0,.6,.2,1.1,.6,1.5,.4,.4,1,.5,1.7,.5h2.7v-4.2h-2.7Z"/>
        <path class="uuid-d17e0488-6fc0-43c4-8b94-70027f1a9d66" d="M103.6,176l-3.8,13.7c0,.2-.2,.3-.4,.2l-4.3-1.2c-2-.5-3.5-1.4-4.5-2.6-1.5-1.6-1.8-3.8-1.1-6.5,1.4-4.9,4.6-6.7,9.7-5.3l4.1,1.1c.2,0,.3,.2,.2,.4Zm-5.4,1.1c-1.2-.3-2.3-.3-3.2,.2-1.1,.5-1.8,1.6-2.3,3.2-.8,2.8,.3,4.7,3.2,5.5l1.6,.4,2.4-8.8-1.7-.5Z"/>
        <path class="uuid-d17e0488-6fc0-43c4-8b94-70027f1a9d66" d="M81.8,170.5c-1.1-.6-1.4-1.4-.9-2.4l.3-.6c.1-.3,.3-.3,.6-.2l7.7,3.9c.2,.1,.3,.3,.2,.5l-6.5,12.7c-.1,.2-.3,.3-.5,.2l-6.2-3.2c-1.1-.6-1.4-1.4-.9-2.5l.3-.6c.1-.3,.3-.3,.6-.2l5,2.6,1.4-2.7-3.2-1.7c-1.1-.6-1.4-1.4-.9-2.5l.3-.6c.1-.3,.3-.3,.6-.2l4.5,2.3,1.4-2.8-3.9-2Z"/>
        <path class="uuid-d17e0488-6fc0-43c4-8b94-70027f1a9d66" d="M70,161.8c-1-.8-1-1.7-.3-2.6l.4-.5c.2-.2,.4-.3,.6,0l5.9,5c.2,.2,.2,.3,0,.5l-9.2,10.8c-.2,.2-.3,.2-.5,0l-.2-.2c-.7-.6-1-1.2-1.1-1.7s.3-1.2,.9-2l6-7.1-2.7-2.3Z"/>
        <path class="uuid-d17e0488-6fc0-43c4-8b94-70027f1a9d66" d="M67.8,156c.2,0,.4,0,.5,0l1.6,2c.1,.2,.1,.3-.1,.4l-14.3,5c-.2,0-.4,0-.5-.1l-.7-.9c-.5-.6-.7-1.2-.7-1.7,0-.5,.3-1.2,.8-2.1l6.8-11c.1-.2,.3-.2,.4,0l1.6,2c.2,.2,.2,.4,0,.6l-1.8,2.7,3.2,4.1,3.1-1.1Zm-7.8-.6l-2.9,4.4,5-1.8-2.1-2.6Z"/>
        <path class="uuid-d17e0488-6fc0-43c4-8b94-70027f1a9d66" d="M57.6,140.4c.2,0,.4,0,.5,.2l1,2.2c0,.2,0,.4-.2,.5l-13,5.8c-.2,0-.4,0-.5-.2l-2.8-6.4c-.5-1.1-.2-2,.9-2.4l.6-.3c.3-.1,.5,0,.6,.2l2.3,5.1,2.9-1.3-1.4-3.2c-.5-1.1-.2-2,.9-2.4l.6-.3c.3-.1,.5,0,.6,.2l2,4.5,5.1-2.3Z"/>
        <path class="uuid-d17e0488-6fc0-43c4-8b94-70027f1a9d66" d="M54.4,132.1c.2,0,.4,.1,.4,.3l.6,2.5c0,.2,0,.3-.3,.3l-15-1.6c-.2,0-.3-.1-.4-.3l-.3-1.1c-.2-.8-.2-1.4,0-1.9,.2-.5,.8-1,1.6-1.5l10.8-7c.2-.1,.3,0,.4,.2l.6,2.5c0,.3,0,.5-.2,.6l-2.8,1.7,1.2,5.1,3.2,.3Zm-6.8-3.9l-4.5,2.8,5.3,.5-.8-3.3Z"/>
        <path class="uuid-d17e0488-6fc0-43c4-8b94-70027f1a9d66" d="M37.7,110.6c-.2,0-.3-.2-.3-.4v-2.2c0-.6,.2-1.1,.6-1.5,.3-.4,.8-.6,1.3-.6l12.8-.5c.2,0,.3,0,.3,.3v2.5c0,.2-.2,.3-.4,.3l-10,.4,10,2.9c.2,0,.3,.2,.3,.4v2.4c0,.2-.2,.3-.4,.4l-10.1,2.5,10,.7c.2,0,.3,.1,.3,.3v2.5c0,.2-.2,.3-.4,.3l-14.2-1c-.2,0-.3-.1-.3-.3v-2.1c0-.7,.2-1.3,.4-1.6,.2-.4,.6-.6,1.1-.7l8.8-2.1-9.7-2.7Z"/>
        <path class="uuid-d17e0488-6fc0-43c4-8b94-70027f1a9d66" d="M38.9,100.8c-.2,0-.3-.2-.3-.4v-.3c.2-.9,.6-1.5,1.1-1.8,.5-.3,1.2-.4,2.1-.2l11.6,2.3c.2,0,.3,.2,.3,.4l-.5,2.4c0,.2-.2,.3-.4,.3l-13.9-2.8Z"/>
        <path class="uuid-d17e0488-6fc0-43c4-8b94-70027f1a9d66" d="M53.6,90.8c.4-1.2,1.2-1.6,2.3-1.2l.6,.2c.3,0,.4,.3,.3,.6l-2.5,7.4c0,.2-.2,.3-.4,.2l-13.5-4.5c-.2,0-.3-.2-.2-.4v-.3c.4-.8,.8-1.4,1.3-1.6s1.2-.2,2.1,0l8.8,3,1.1-3.4Z"/>
        <path class="uuid-d17e0488-6fc0-43c4-8b94-70027f1a9d66" d="M44.7,82.3c-.2-.1-.3-.3-.2-.5v-.2c.5-.8,1-1.3,1.5-1.5,.6-.2,1.3,0,2.1,.4l10.7,5.2c.2,.1,.3,.3,.2,.5l-1.1,2.2c-.1,.2-.3,.3-.5,.2l-12.8-6.2Z"/>
        <path class="uuid-d17e0488-6fc0-43c4-8b94-70027f1a9d66" d="M61,81.6c.2,.2,.2,.4,0,.5l-1.4,2.1c-.1,.2-.3,.2-.4,0l-8.9-12.2c-.1-.2-.1-.3,0-.5l.7-1c.4-.6,.9-1,1.4-1.2,.5-.1,1.2,0,2.2,.2l12.5,3.4c.2,0,.3,.2,.1,.4l-1.5,2.1c-.2,.2-.3,.3-.6,.2l-3.1-.9-3,4.3,1.9,2.6Zm-1.7-7.7l-5.1-1.5,3.2,4.2,1.9-2.8Z"/>
        <path class="uuid-d17e0488-6fc0-43c4-8b94-70027f1a9d66" d="M74.4,60.1c-.8-.1-1.5-.6-2.1-1.4-.5-.7-.7-1.5-.6-2.2,.1-.8,.6-1.5,1.4-2.1,.7-.5,1.5-.7,2.2-.6,.9,.1,1.6,.6,2.1,1.4,.5,.7,.7,1.5,.6,2.2-.1,.8-.6,1.5-1.4,2.1-.7,.5-1.5,.7-2.2,.6Z"/>
      </g>
      <g>
        <polygon class="uuid-bee67380-cafe-4636-98ae-80c8cf194745" points="149.4 118.6 149.6 115.4 149.5 112.4 149.2 110 148.7 107.4 148 104.9 147 102.2 145.7 99.4 144.3 96.8 142.8 94.6 140.6 91.9 138.5 89.6 136.4 87.8 133.8 85.9 131.2 84.3 128.3 82.8 125.4 81.7 122.3 80.8 118.8 80.1 117.5 79.9 114.6 79.7 111.3 79.8 108.1 80.1 104.8 80.8 102.7 81.4 100 82.4 97.4 83.5 94.9 84.9 92 86.8 89.2 89.1 86.6 91.7 84.6 94.1 83.1 96.3 82.3 97.5 80.9 100.2 79.6 103.3 78.6 106.4 78.1 108.6 77.6 111.5 77.5 113.7 77.5 116.9 77.7 119.6 78.1 122.2 78.8 125.1 79.7 127.9 80.9 130.7 82.4 133.4 84.1 136.1 86.1 138.6 88.4 141.1 90.6 143 93.3 145 95.6 146.5 97.9 147.7 100.5 148.8 103.1 149.7 106.1 150.4 109.2 151 111.3 151.1 114.3 151.2 117.2 151 119.8 150.6 122.8 150 126 149 128.9 147.8 132.1 146.1 134.7 144.4 137.2 142.4 139.6 140.2 141.3 138.3 142.8 136.4 143.7 135 144.9 133.1 146.4 130.4 147.5 127.6 148.4 124.7 149.1 121.6 149.4 118.6"/>
        <path class="uuid-1ee3c327-1d5c-45af-94c8-d30de99c15d2" d="M115.6,99.6c.4,0,.8,.1,1.1-.2,.1-.1,.1-.3,0-.4-.3-.4-.9-.5-1.4-.4-.2,0-.5,.2-.4,.5,.1,.3,.4,.5,.7,.5Zm-.9,1.3c.6,.4,1.4,.4,2,.1,.3-.2,.9-.2,1-.7,0-.2-.2-.4-.4-.4-.6,.2-1.1,.5-1.7,.4-.8,0-1-1.2-1.8-.7-.1,.1-.1,.3,0,.5,.3,.4,.7,.6,1.1,.9Zm33.3,17.6v-5.9l-.2-2.3-.5-2.5-.6-2.3-.9-2.6-1.3-2.7-1.4-2.5-1.4-2.1-2.1-2.6-2.1-2.2-1.9-1.7-2.5-1.9-2.5-1.5-2.7-1.4-2.8-1.1-3-.9-3.4-.7h-1.2l-2.8-.3h-3.2l-3.1,.4-3.1,.6-2,.6-2.6,.9-2.5,1.1-2.4,1.3-2.8,1.9-2.6,2.2-2.5,2.5-1.9,2.3-1.5,2.1-.8,1.2-1.4,2.6-1.2,2.9-.9,3-.5,2.1-.4,2.7-.2,2.2v3l.2,2.7,.4,2.5,.7,2.7,.9,2.6,1.2,2.7,1.4,2.6,1.6,2.5,2,2.5,2.2,2.3,2.1,1.9,2.5,1.9,2.2,1.4,2.2,1.1,2.5,1.1,2.6,.9,2.8,.7,3,.5,2,.2h5.7l2.6-.5,2.8-.6,3.1-1,2.7-1.2,3-1.6,2.5-1.6,2.4-1.9,2.2-2.1,1.7-1.9,1.4-1.7,.9-1.3,1.1-1.8,1.4-2.7,1.1-2.6,.9-2.8,.6-3,.4-2.8Zm-2.7-10.7h0l.4,1.8,.4,2.7,.2,2.9v2.3c-1.6,.3-3.3,.3-4.9,0l-2.1-.4-2.9-1-2.8-1.2-2.9-1.5-.5-.3h.2l2.1-.8c1.3,1,3.2,2,4.9,1.4,.6-.2,1.1-.6,1.2-1.2,0-.7,0-1.4-.4-2.1l3.4-1.2,3.7-1.3Zm-16.7,4.3l-1.8-1.2,2.1-2,2.3,2.2h0l-2.6,.9Zm-39.1-18.5l2.4-2.3,2.2-1.8,2.7-1.8,3-1.6,2-.8,2.5-.9,2.9-.7,3.1-.5,3.3-.2h2.6l2.3,.4h.2l3,.6,2.2,.7,2.6,1,2.3,1.1,2.5,1.5,2.5,1.8,2.2,1.9,2.2,2.2,1.7,2.2,1.8,2.7,1.4,2.6,1,2.3,.8,2.2v.3l-7.5,2.6c-.7-.7-1.4-1.4-2.1-2,.4-.4,.5-1.2,.4-1.8l-1.7-1.7-1.4-1.7-1-1.6-.9-1.9c-.4-1.2-.7-2.4-.8-3.6v-2.2l.2-2.5c0-.2,.1-.5,0-.7-1.2,.7-1.9,1.8-2.3,3.1-1.2-1.1-.6-3-.3-4.5l-.2,.2-1.4,2.1c-1.4,2.3-2,5.4-1.6,8.1l.5,2.2,.5,1.7-4.4,3.2c-.1,0,0-.2-.2-.2l-1.2-3.4c.9-.9,1.6-1.9,1.8-3.2,.7-.2,1.5,.2,2-.5,.1-.2,0-.5-.1-.7-.4-.4-.9,0-1.4-.1v-2.7l-.4-2.5c-.1-1.1-.4-2.1-.8-3.1-.4-.8-1.1-1.4-2-1.4-.5,0-1.1,.3-1.5-.1-.4-.1-.7,.1-1,.3-2.5,1.5-3.9,4-5,6.6-.9,0-1.9,0-2.8,.4-.2,.1-.4,.3-.4,.5,0,.3,0,.5,.2,.6,.7,.3,1.3-.2,1.9-.2h.7c-.7,1.6-.6,3.4,.3,4.8l-3.7-2.1-2.9-1.5-3.1-1.3-2.7-.8-2.6-.5-2.4-.2h-1.7l-2.1,.5c-.7,.2-1.4,.4-2.1,.6l1.5-1.8Zm23.3,3.9c.2-.4,.3-1,.3-1.4l1.6,.5,3.5,1.4,.7,.2c0,.6-.1,1.2,.4,1.6,0,0,.1,0,.2,0-.7,1.2-2.1,2-3.4,2-1.4,0-2.5-.8-3.4-1.7-.5-.7-.8-1.5-.7-2.3,.3,.1,.6-.2,.8-.4Zm-.1-3c.9-2.2,2-4.3,4.3-5.6,.6,.3,1.3,.2,1.9,0,.8,.4,1,1.4,1.2,2.2l.4,2.2,.2,2.8v1l-1.8-.5-4.1-1.6c-.7-.2-1.4-.4-2.1-.6Zm0,7.4h0c1.5,1.2,3.9,1.7,5.8,.8l2.8,7.8,5.4,15.1-2.4-.4-5-.8-1.4-.3-21.3-3.5,2.8-3.3,13.2-15.5Zm-7.8,23.7l-23.4-4-.2-1.2-.4-2.8v-5.1l.4-2.5,.5-2.3,.8-2.8,1.1-2.7,1.3-2.6,1.2-1.9,1.9-1c1.7-.7,3.4-1.1,5.2-1.2h2.2l1,.2,2.2,.4,2.1,.6,2.8,1.1,2.7,1.3,4,2.2,.7,.4-.7,.9-1.5,1.7c-1.5-1-3.4-1.9-5.5-1.8-2,0-4.1,1.4-5,3.1-.4,.6-.7,1.4-.9,2.1-3.4,2-5.2,5.4-5.8,9.2,0,.8,0,1.7,.7,2.3,.4,.2,.8,.3,1.2,.2,.8-.4,.8-1.4,.9-2.2l.2-3c.2-1.4,.4-3,1.7-3.8,.3-.1,.5-.3,.9-.3-.1,1.8,1.1,3.7,2.7,4.6l-5.6,6.5c0,.1,.1,0,.2,.1l9.8,1.6h.1l1.1,2.4h-.5Zm-.3,10c.9-.9,2.2-1.7,3.5-2v-6l2.1-.3h0l-1.2,7.4-4.5,.8Zm2.8-9l-.2-.3-1.3-2.8h.2l4,.6c.2,0,.4,.1,.7,.1l-.3,1.7-3.2,.6Zm5.2,9.7l-2.1-1.2,.2-1.3,1.1-6.1h0l2,1-.4,1.1-1.6,4.5c1.1,.6,2.1,1.8,2.7,3l-1.8-1Zm2.1-8.5l-.5-.3-2.2-1.2,.3-1.8,2.4,.4,2.1,.4-2.1,2.5Zm30.3-3.5l-.8,2.5-.9,2-1.3,2.5c-.2,.1-.2,.5-.4,.5l-25-4.3c.4-.7,1.1-1.3,1.6-1.9h.1l10.3,1.7h0l-3.2-8.7-1.8-5v-.2l1.9-1.6,5,3,2.8,1.5,2.7,1.2,2.2,.8,2,.5c1.9,.4,3.9,.4,5.7,.1v.2l-.3,2.6-.6,2.7Z"/>
      </g>
    </g>
  </g>
</svg>