<?xml version="1.0" encoding="UTF-8"?>
<svg id="uuid-12472dde-133a-4416-b865-389e3b90ef23" data-name="Layer 2" xmlns="http://www.w3.org/2000/svg" width="33.3" height="27.5" viewBox="0 0 33.3 27.5">
  <defs>
    <style>
      .uuid-2d8fadb0-beda-41c1-b474-f4f3211ce4e4 {
        fill: #fff;
      }
    </style>
  </defs>
  <g id="uuid-f9fb56f6-1b3d-437e-8bb6-32c012fd7ef0" data-name="Capa 1">
    <path class="uuid-2d8fadb0-beda-41c1-b474-f4f3211ce4e4" d="M15.9,27.5c-3-4-6.8-5.6-11.4-5.6S0,20.3,0,17.9s1.5-4.9,4.5-4.9c6.9,0,11.4,14.5,11.4,14.5Zm0-7.2c.5-5.1-1.2-9.1-4.4-12.5-1.6-1.7-2.2-4.5-.7-6.3,1.6-1.7,4.3-2.3,6.5,0,4.9,5-1.4,18.8-1.4,18.8Zm17.4-6.4c0,2.4-2.3,3.8-3.8,4-5.2,.6-9,2.4-12.1,5.6,0,0,5.3-14.5,11.4-14.5s4.5,3.3,4.5,4.9Z"/>
  </g>
</svg>