<?xml version="1.0" encoding="UTF-8"?>
<svg id="uuid-84096200-f646-4777-8568-7bd68cf64406" data-name="Layer 2" xmlns="http://www.w3.org/2000/svg" width="346" height="70.3" viewBox="0 0 346 70.3">
  <defs>
    <style>
      .uuid-ac9b4b5a-1923-428b-ab0a-0c602b6753dd {
        fill: #fff;
      }

      .uuid-85d8853d-40c2-42e6-8f38-f405de6d42ce {
        fill: #dac174;
      }

      .uuid-172bfb3e-7666-4b4d-8f60-997c0c5d487a {
        fill: #c2a06b;
      }

      .uuid-5a67c2d4-9b9b-4e54-9bfb-7074dff86285 {
        fill: none;
        stroke: #d51317;
        stroke-width: .2px;
      }

      .uuid-40711e94-6e5a-4daf-a74c-df8ddb470fe8 {
        fill: #d51317;
      }
    </style>
  </defs>
  <g id="uuid-eee5863a-a1b2-4d0b-86d0-d92ba41541b6" data-name="Capa 1">
    <g>
      <g>
        <polygon class="uuid-ac9b4b5a-1923-428b-ab0a-0c602b6753dd" points="70.9 32.2 70.5 29 69.8 26.2 69.2 23.9 68.2 21.4 67.2 19.1 65.8 16.7 64 14.1 62.1 11.9 60.3 10 57.8 7.7 55.3 5.9 53 4.5 50.1 3.1 47.4 2 44.3 1 41.3 .4 38.2 0 34.7 0 33.4 0 30.5 .4 27.3 1 24.3 1.9 21.2 3.1 19.3 4 16.8 5.4 14.5 7 12.3 8.7 9.8 11.1 7.5 13.7 5.4 16.7 3.9 19.3 2.7 21.7 2.2 23.1 1.3 25.9 .5 29.1 .1 32.3 0 34.5 0 37.4 .3 39.6 .8 42.7 1.5 45.3 2.3 47.7 3.5 50.4 4.8 52.9 6.5 55.5 8.4 57.9 10.5 60.1 12.9 62.3 15.5 64.3 18 65.8 20.9 67.3 23.4 68.3 25.8 69 28.5 69.7 31.2 70.1 34.2 70.3 37.4 70.3 39.4 70.1 42.4 69.7 45.1 69 47.6 68.2 50.3 67.1 53.3 65.6 55.9 63.9 58.7 61.8 60.9 59.7 63 57.3 64.9 54.8 66.3 52.6 67.4 50.6 68.1 49 68.9 47 69.9 44.1 70.5 41.2 70.9 38.2 71 35.1 70.9 32.2"/>
        <path class="uuid-172bfb3e-7666-4b4d-8f60-997c0c5d487a" d="M34.8,19.5c.4,0,.8,0,1-.4,0-.1,0-.3,0-.4-.3-.3-1-.4-1.4-.2-.2,.1-.4,.3-.3,.6,.2,.3,.4,.4,.8,.4Zm-.7,1.4c.7,.3,1.4,.1,2-.2,.3-.3,.9-.4,.8-.9,0-.2-.3-.4-.5-.3-.5,.3-1,.7-1.6,.7-.7,.1-1.2-1-1.9-.4,0,.1,0,.4,0,.5,.4,.3,.7,.5,1.2,.7Zm35.2,11.4l-.4-3-.6-2.8-.7-2.2-.9-2.4-1-2.2-1.3-2.3-1.7-2.4-1.8-2.2-1.7-1.8-2.4-2.2-2.4-1.8-2.2-1.3-2.8-1.4-2.7-1-2.9-.9-2.9-.6-3-.3h-4.6l-2.8,.3-3.1,.6-2.9,.8-2.9,1.1-1.9,.9-2.4,1.3-2.2,1.5-2.1,1.7-2.4,2.3-2.2,2.5-2,2.9-1.5,2.5-1.1,2.3-.5,1.3-.9,2.7-.7,3-.4,3.1v4.8l.2,2.1,.5,2.9,.7,2.5,.8,2.3,1.1,2.6,1.3,2.4,1.6,2.4,1.8,2.3,2,2.2,2.3,2.1,2.5,1.9,2.4,1.5,2.8,1.4,2.4,1,2.3,.7,2.6,.6,2.6,.4,2.9,.2h3l1.9-.2,2.9-.4,2.6-.6,2.4-.8,2.6-1.1,2.9-1.5,2.5-1.6,2.7-2.1,2.2-2,2-2.3,1.8-2.4,1.3-2.1,1-1.9,.7-1.4,.8-2,.9-2.8,.6-2.7,.4-2.9v-5.8Zm-4.5-9.9h0l.7,1.6,.8,2.6,.6,2.8,.3,2.2c-1.4,.6-3.1,.8-4.7,.8h-2.1l-3-.5-2.9-.7-3-1-.5-.2h.1l1.9-1.1c1.4,.7,3.4,1.4,5,.5,.5-.3,1-.8,1-1.4,0-.7-.3-1.4-.7-2l3-1.7,3.4-1.9Zm-15.5,7l-2-.8,1.7-2.3,2.6,1.8h0l-2.4,1.3ZM8.5,18.1l1.9-2.6,1.9-2.1,2.3-2.2,2.7-2.1,1.8-1.1,2.3-1.3,2.7-1.2,3-1,3.2-.7,2.5-.3h2.3l.2-.2h3l2.3,.3,2.6,.5,2.4,.6,2.7,1,2.7,1.3,2.5,1.5,2.5,1.8,2,1.8,2.2,2.3,1.8,2.3,1.4,2.1,1.1,2v.3l-6.7,3.8c-.8-.6-1.6-1.2-2.4-1.6,.3-.5,.3-1.2,.1-1.8l-2-1.4-1.6-1.4-1.2-1.3-1.2-1.7c-.6-1.1-1.1-2.2-1.4-3.3l-.5-2.1-.2-2.5c0-.2,0-.5,0-.6-1.1,.9-1.6,2.1-1.7,3.4-1.4-.9-1.1-2.8-1.1-4.3l-.2,.2-1,2.2c-1,2.5-1,5.6-.1,8.1l.9,2.1,.8,1.6-3.8,3.9c-.1,0-.1-.1-.2-.2l-1.7-3.1c.8-1,1.2-2.2,1.2-3.5,.6-.3,1.5,0,1.8-.8,0-.3,0-.5-.2-.6-.5-.3-.9,.1-1.3,.1l-.6-2.6-.7-2.4c-.3-1-.8-2-1.3-2.8-.5-.7-1.3-1.2-2.1-1-.5,.1-1,.5-1.4,.1-.4,0-.6,.3-.9,.4-2.2,1.9-3.1,4.5-3.7,7.2-.9,.2-1.8,.4-2.6,.8-.2,.1-.4,.3-.3,.6,0,.3,.1,.5,.3,.5,.7,.2,1.2-.4,1.8-.5h.7c-.4,1.5,0,3.2,1.1,4.5l-4-1.4-3.1-.9-3.3-.7-2.7-.3h-2.6l-2.4,.2-1.7,.4-2,.7c-.6,.3-1.3,.6-1.9,1l1.2-2Zm23.3-.1c.2-.4,.2-1,0-1.4l1.6,.3,3.6,.8h.7c0,.7,.1,1.3,.7,1.5,0,0,.2,0,.2,0-.5,1.3-1.7,2.3-3,2.5-1.3,.2-2.5-.4-3.6-1.1-.6-.6-1-1.3-1.1-2.1,.3,0,.6-.3,.7-.5Zm-.6-2.8c.5-2.2,1.3-4.5,3.2-6.1,.7,.2,1.3,0,1.8-.3,.9,.3,1.2,1.2,1.5,1.9l.8,2.1,.7,2.7,.2,1-1.8-.2-4.2-.8c-.7-.1-1.4-.2-2.1-.2Zm1.3,7.2h0c1.7,.9,4.1,1,5.7-.2l4,7.1,7.8,13.7h-8.7l-21.2,.2,2.1-3.6,10.1-17.2Zm-3.5,24.2H5.5l-.4-1-.8-2.7-.5-2.3-.3-2.7v-4.7l.3-2.9,.6-2.8,.8-2.7,.9-2.1,1.7-1.3c1.5-1,3.1-1.6,4.9-2l2.2-.3h3.1l2.1,.3,2.9,.6,2.9,.8,4.2,1.5,.7,.3-.6,1-1.1,1.9c-1.7-.7-3.6-1.3-5.6-.8-1.9,.3-3.7,2.1-4.3,3.9-.3,.7-.4,1.4-.5,2.2-3,2.5-4.2,6.1-4,9.9,.1,.8,.2,1.7,1,2.1,.4,0,.8,.2,1.2,0,.7-.5,.5-1.5,.5-2.3l-.3-2.9c0-1.4-.1-3,1-4,.3-.2,.5-.4,.8-.4,.2,1.8,1.7,3.4,3.4,4l-4.3,7.2c0,.1,.1,0,.2,0h9.9l1.4,2h-.5Zm1.4,9.9c.7-1.1,1.8-2.1,3-2.5l-1.1-5.8,2.1-.7h0v7.4l-4.1,1.6Zm1.2-9.2l-.2-.3-1.7-2.5h4.2c.2-.1,.4,0,.7,0v1.7l-3,1.1Zm6.7,8.5l-2.3-.8v-7.4h0l2.1,.6-.2,1.2-.8,4.6c1.2,.4,2.3,1.4,3.1,2.5l-2-.7Zm.6-8.6l-.6-.2-2.3-.8v-1.8h4.5l-1.6,2.7Zm28.8-8.5l-.4,2.6-.5,2.1-.8,2.6c-.2,.2,0,.5-.3,.6h-24.9c.3-.6,.8-1.3,1.2-2h10.4v-.3l-4.5-7.8-2.6-4.5v-.2l1.6-1.9,5.3,2.1,3,1,2.8,.7,2.2,.4h2.1c1.9,.1,3.8-.2,5.6-.7h0v5.5Z"/>
      </g>
      <g>
        <g>
          <g>
            <path class="uuid-ac9b4b5a-1923-428b-ab0a-0c602b6753dd" d="M338.9,36.3l-.6-.8h-1c-1,.2-2,.2-3,.2s-2.6-.1-3.8-.3h-.6l-.7,.3-.8,.4-.2,.9c-.2,.9-.2,1.8-.2,2.6s0,.8,0,1.2v1.6l2,.2c0,.4-.1,.9-.2,1.6,0,.2,0,.4,0,.6v1.3l-3-5.4v-.4h-.2l-2.8-5.1h-1c-2.3,0-4.5,0-6.1-.5l-.7-.2-.7,.3-1,.5-.2,4.8h-1.1l-.2-3.3c0,0,0-.1,0-.1,0-.5-.3-1.5-1-1.8-.6-.4-1-.3-1.3-.4-.1,0-.2,0-.3,0h0l-16.5,.3-.6,.2-1.1,.4-.3,4.5h-7.4c0-.6,0-1.1,0-1.6s0-1.2,0-1.8v-1.6h-1.7c-.3-.1-.5-.1-.8-.1-1.4,0-2.6,.1-3.7,.1-.5,0-1,0-1.5-.1h0l-6.7-.6-.3,1.7c-.2,1.4-.2,2.7-.2,3.8h-5.9v-4l-.6-1.1h-5.5l-8.4-.5v1.9c-.1,1-.3,2.2-.3,3.4,0,0,0,0,0,.1h-6.9l-1.7-6h-1.4c-1.3,0-2.6,.2-3.7,.3h-8.9l-.6,5.5h-5l.2-5.1-2.1,.2c-1.6,.1-3.3,.3-4.8,.4h-.2c-.5,0-1,.1-1.5,0-.8,0-1.7,0-2.7,0s-.9,0-1.4,0h-1.2l-1.5,4.2h-1.7l-.9-2.8-.9-2.4h-1.3c-.5,0-1,.1-1.6,0-2,0-4-.2-6-.5l-1.9-.2-.3,5.6h-.9v-4.9h-2c-1.3,.2-2.7,.3-4,.2s-1.7,0-2.6-.1h-.9l-.3,.2-1.1,.4v1.2c-.1,.8-.2,1.7-.2,2.7s0,.1,0,.2h-1.2v-4.7h-1.7c-2.8-.2-5.6-.1-7.7-.6l-1.7-.4-.5,1.6c-.4,1.4-.5,2.8-.6,4h-2.3l-1.6-5-1.8-.2-2.8,.2h-8.1l-.2,1.7c-.1,1-.2,2.1-.3,3.1h-3.2c0-.9,0-1.8,0-2.6v-1.9h-2c-.4,.2-1.1,.2-1.9,.3h-7.7v1.8c0,.7,0,1.5,0,2.3h-1s0,0,0,0c0-.8,0-1.5,0-2.2v-1.9l-4.5,.2-4.8-.5-.7,.3-1,.4-.5,3.7h-6v-3.4h4.6l.8-1.4,.7-18.5-.4-.7-.5-1h-12l-.4,.2-1.2,.3v1.2h-.1c-1.3-.6-2.6-1.1-3.9-1.5-1.5-.4-2.9-.6-4.3-.6-5.1,0-9.8,2.4-13.2,6.1-3.8,4.5-5.5,9.7-6.3,15.1l-.5,4.7h0c0,5,.5,10.1,2.8,14.7,2.7,5.3,7.9,9.5,14.1,9.9,.5,0,1,0,1.5,0,2.9,0,5.9-.4,8.7-1.6,.1,0,.2,0,.3-.1,0,.3,0,.7,.3,1.2l.5,1.1h1.2c.7,0,1.5,0,2.5-.2h4.3l4.1,.3,.7-.4,.9-.6-.3-5.6h2.7c.4,1.2,.9,2.3,1.7,3.3h0c2,2.2,4.8,3.2,7.4,3.2s2.6-.2,3.8-.6c2.8-.9,4.7-3,5.7-5.2,0-.2,.1-.3,.2-.5h1.5v4.3l1.3,.4c.3,0,.6,.1,.9,.1,.7,0,1.1-.1,1.3-.1h8.7v-4.6h1.9c0,.4,0,.9,0,1.3,0,.6,0,1.3,.2,2l.3,1.4h8.4l4.1,.3,.3-5h1.6c0,.8,0,1.6-.1,2.4,0,.2,0,.5,0,.8v1.4l1.4,.3c.3,0,.6,0,.8,0,.2,0,.4,0,.6,0l4.7-.2,4,.2,.7-.5,.7-.5v-3.8h2.2c0,.5,0,1.1,0,1.6s0,.6,0,.9v1.8h2.2l4.7,.2c1.3,0,2.5,.3,4,.4l2,.2v-2c0-.9,.1-1.8,.1-2.8h2.2l.3,.8h2.5l.4-.8h2.1v3.7l.8,.5c.5,.3,.9,.4,1.2,.4,.4,0,.6,0,.7-.1l4.3-.2,4.3,.2,.7-.7,.6-.5v-3.2h1.1v2.3l.2,.6,.5,1h11.3l.2-1.6c0-.8,.1-1.5,.1-2.3h1.7c0,.2,0,.3,0,.5,0,.6,0,1.2,0,1.7v1.7h5.9l7,.5,.2-1.8c0-.8,.2-1.6,.2-2.5h1.3l.3,3.9,1.6,.5,16-.4,.6-.2,1.1-.4v-3.2h1.2c0,.9,0,1.9,.2,2.7v1.3l1.8,.4,17.7-.4v-3.8h1.7v2.8l.6,.8,.6,.7,17.9-.3,.7-.5,.7-.5v-2.8h1.1c0,.2,0,.4,0,.5,0,.5,0,1,0,1.5v1.4l1.5,.3c.4,0,.7,0,1,0s.9,0,1.3,0l7.1,.5,.2-1.7c0-.7,.2-1.5,.2-2.4h1.4v-1.3l2.7,5.1h2.4l3.8,.3,.7-.4,.9-.5v-18.9c.3,0,.7-.1,1.2-.3l1-.5v-1.1l.3-4.6-.5-.7Zm-156.5,1.7h0Zm-1.2,21h-5.7c0-.4,0-.8,0-1.2h5.6v1.2Zm150.7,.5h-.3l-4.9-9.2v-2.2l1.9,3.5,.6,.2c0,0,.5,.3,1.3,.3,.5,0,1.3-.2,1.7-.7h0l.5-.8,.3-.4,.2-2.4v11.8h-1.4Z"/>
            <path class="uuid-ac9b4b5a-1923-428b-ab0a-0c602b6753dd" d="M114.3,65.3h-4.1c-1.1,.3-2.1,.3-2.7,.3h-2.3l-.7-1.7c-2.6,.9-5.3,1.2-7.9,1.2h0c-.5,0-1,0-1.6,0h0c-6.9-.5-12.6-5.1-15.5-10.8h0c-2.5-4.9-3-10.3-3-15.3h0v-.2l.6-4.8c.8-5.6,2.6-11.2,6.7-16h0c3.7-4,8.8-6.6,14.4-6.6h0c1.6,0,3.2,.2,4.7,.7h0c.7,.2,1.4,.4,2,.7h0l1.1-.4,1.2-.3h.4l.5-.2h13l.5,.9,.5,1,.5,1.1-.7,17.8,.9-.3,5.1,.5,6.1-.3v.2h7c.9-.1,1.6,0,1.9-.1h0l3.7-.3v3.7c0,.3,.1,.5,.1,.8h0c0-.5,0-1,.2-1.4h0l.4-3h9.5l2.9-.4,3.1,.4,1.2,3.8c0-.6,.2-1.1,.4-1.7h0l1-3.1,3.2,.8c1.8,.5,4.5,.4,7.4,.5h0l3.4,.2v.3h.4l.8-.5h.9c.8,.2,1.6,.2,2.4,.2h0c1.3,0,2.6,0,3.9-.1h1.7v-1l3.7,.4c2,.2,3.9,.4,5.8,.5h0c.5,0,1,0,1.5,0h2.5l1.4,3.4,.2,.6,1.1-3h1.1l1.2-.2c.5,0,1.1,0,1.5,0h0c1,0,1.9,0,2.7,0h0c.5,0,1,0,1.3,0h.4c1.4,0,3.1-.2,4.7-.4h0l4-.4-.2,5.2h1.8l.6-5.4h10.3c1-.2,2.3-.3,3.7-.4h2.7l1.7,5.9h4c0-.7,0-1.4,.1-1.9h0l.2-3.6,10.1,.7h6.6l1,2,.4,.8v2.2h2.5c0-.7,0-1.5,.2-2.4h0l.5-3.2,8.3,.7h.1c.3,0,.7,.1,1.2,.1h0s0,0,0,0h0c1,0,2.2-.1,3.7-.1h0c.3,0,.6,0,.9,0h0l3,.2,.2,3c0,.6,0,1.2,0,1.8h4.1l.3-4,1-.4,1.1-.4,.9-.3,17.2-.3h.1c0,0,1.2,0,2,.6h0c.3,.2,.5,.4,.7,.5h.2l1-.6,1.3-.6h.6l.7,.3c1.2,.3,3.4,.3,5.7,.4h2l1.7,3.2h0l.3-1.8,.7-.4,.8-.4,1.2-.6h.5l.6,.2c1.1,.2,2.3,.3,3.6,.3h0c.9,0,1.9,0,2.9,0h0l1.9-.2,.5,.7,.6,.8-1.3,1-1.3,1h-.1c-1.1,0-2.1,0-3.2,0h0c-1.4,0-2.8-.1-4.1-.3h-.3v.2h0c-.2,.8-.2,1.6-.2,2.4h0c0,.4,0,.8,0,1.2h0l2,.4c-.1-.2-.2-.3-.4-.4h-.2l1-3.2c.7,0,1.5,0,2.2,.1h0c.5,0,.9,0,1.4,0h1.8v2.4l-.2,1.5h-1.5c0,0,0,0,0,0h0c0,0-.2,0-.3,.1h0c-.2,.1-.4,.3-.4,.4h0l-2.1,4.1-1-4.5c0-.1,0-.3-.1-.4h0l-.2,1.4c0,.4-.1,.8-.2,1.3h0c0,.1,0,.2,0,.3h0v.2l-.3,5.5,.3-.5h0v-2h3.4v13.6h-1.7l-1.4-.2h-1.3l-5.6-10.5v-8.8h-6.4l-.5-.8c-.1-.2-.6-.5-.7-.5h0l.5-1.5-.5,1.5-1.3-.4,.2-3.4,1.7,.2c1.2,.1,2.4,.1,3.6,.1h1l2.6,4.8h0l4.6,8.4h0c.2,0,.2,0,.2,0h0s0,0,.1,0h0s0,0,.1,0h0l-3.6-6.6h-.3v-.5l-.8-1.4h0l-2.8-5.1h0c-2.2,0-4.5,0-6.4-.5h-.3l-.3,5.5h-4.3l-.2-5h0c0-.1,0-.1,0-.1h0c0-.1,0-.1,0-.2h0c0,0,0-.2-.1-.2h0c-.3-.2-.1-.1-.5-.1h0c0,0-.1,0-.1,0h-.5l-15.8,.2h-.3v.2l-.5,5h-10.7v-1.8c0-.5,.1-1,.1-1.5h0c0-.6,0-1.1,0-1.7h0v-.2c-.4,0-.6,0-.9,0h0c-1.2,0-2.4,0-3.6,0h-.2c-.6,0-1.1,0-1.7-.1h0l-5.1-.4h0c-.1,1.1-.2,2-.2,2.9h0v.2h0v.6h0v1.7h-9.3v-4.9h0v-.2h-4.6l-6.8-.4v.2c0,1.1-.2,2.2-.2,3.4h0s0,0,0,.1h0v1.7h-9.8l-1.7-6h-.1c-1.2,0-2.5,.2-3.8,.2h-7.4l-.6,5.5h-8.2l.2-4.9h-.2c-1.6,.2-3.3,.4-4.9,.4h0c-.6,0-1.2,.1-1.8,0h0c-.9,0-1.8,0-2.7,0h0c-.4,0-.8,0-1.2,0h-.1l-1.5,4.3h-4.1l-1.2-3.9-.5-1.2h-.1c-.5,0-1.1,0-1.7,0h0c-2.1,0-4.2-.3-6.1-.5h-.2l-.3,5.4h-4.2v-4.8h-.3c-1.3,0-2.7,.2-4.1,.1h0c-.9,0-1.8,0-2.7-.1h-.3v.2h-.1c0,.9,0,1.8,0,2.7h0s0,0,0,.2h0v1.7h-4.5v-4.8h-.1c-2.7-.1-5.5,0-8-.6h-.2c-.4,1.3-.4,2.5-.5,3.7h0v1.6h-5.2l-1.6-5.1h-.6l-2.7,.2h-6.7v.2c-.1,1-.2,2-.3,3h0v1.6h-6.5v-1.7c0-.9,0-1.7-.1-2.6h0v-.2h-.2c-.6,0-1.2,0-1.8,.1h-6.3v.2h0c0,.8,0,1.6,0,2.4h0v1.6h-4.3v-1.7c0,0,0,0,0-.1h0c0-.7,0-1.4,0-2.2h0v-.2h-2.9l-4.6-.3h-.3v.2l-.6,4.2h-9.2v-6.8l5.3,.2v-.2l.8-17.7-.2-.4h-11v.2h0l-.2,2.5-2.2-1.1c-1.1-.6-2.3-1.1-3.6-1.4h0c-1.3-.4-2.6-.6-3.8-.6h0c-4.6,0-8.8,2.1-11.9,5.5h0c-3.5,4.2-5.1,9-5.9,14.2h0l-.5,4.6h0c0,4.8,.5,9.6,2.6,13.8h0c2.4,4.8,7.3,8.6,12.7,8.9h0c.5,0,.9,0,1.4,0h0c2.8,0,5.5-.4,8-1.5h.1c0,0,.1-.1,.2-.1h0l2.2-1v2.4c.1,.2,.2,.4,.3,.6h.1c.7,.1,1.4,.1,2.1,0h4.8l3.7,.2h.2v-.2l-.3-6.5h5.7l.4,1.2c.3,1,.8,1.9,1.4,2.7h0c1.6,1.7,3.9,2.5,6.2,2.5h0c1.1,0,2.2-.2,3.3-.5h0c2.3-.7,3.8-2.4,4.7-4.3h0s0-.1,.2-.4h0l.4-1h4.4v4.7h0c.2,0,.3,0,.4,0h0c.6,0,.6,0,1.2-.1h0s0,0,0,0h0s0,0,0,0h0s0,0,.1,0h6.9v-4.6h5.3v1.8c-.1,.4-.2,.8-.2,1.2h0c0,.5,0,1.1,.2,1.6h2.3l5,.2h2.5l.3-4.8h4.9v1.8c-.2,.8-.2,1.5-.2,2.3h0c0,.2,0,.5,0,.7h0v.2c.3,0,.4,0,.6,0h0c.2,0,.3,0,.4,0h0l4.8-.2,3.5,.2,.3-.2h0v-4.7h5.6v1.8c-.1,.5-.2,1-.2,1.5h0c0,.3,0,.5,0,.8h0v.2h.6l4.7,.2s0,0,.1,0h0c1.5,0,2.7,.3,4.1,.4h.2c0-.1,0-.2,0-.2h0c0-.9,0-1.9,.1-2.8h0v-1.6h5l.3,.8h.3l.4-.8h4.8v4.5h0c0,.1,.2,.1,.2,.1h0c.2,0,.3,0,.3,0h.2l4.6-.2,3.7,.2,.2-.2h0v-4.3h4.6l-.2,3.7v.3h9c0-.7,.1-1.4,.1-2.2h0v-1.6h5.1v1.8c0,.2,0,.3,0,.4h0c0,.6,0,1.1,0,1.7h0v.2h4.3l5.5,.4v-.2c0-.8,.2-1.6,.2-2.4h0v-1.6h4.5l.3,4.4h.3l15.5-.3h.3v-.2l.2-3.7h4.4v1.6c0,.9,.1,1.8,.2,2.6h0l.3,.2,15.9-.4v-3.9h5v3.9l.2,.3h0l16.6-.2,.3-.2h0l.2-3.6h4.3v1.7c0,.2,0,.4,0,.5h0c0,.5,0,.9,0,1.4h.1c.2,.2,.5,.2,.8,.2h0c.3,0,.7,0,1,0h.2l5.7,.4v-.2c.1-.7,.2-1.5,.2-2.2h0v-1.6h3l1.6-.4,2.3,4.3h1.4l3.2,.3h.2v-19.7h1.6c.2-.1,.4-.2,.8-.3h0l.2-4.2-.2-.3,1.3-1,1.3-1,.9,1.2-.3,5.2v2.1l-1,.4-1,.5h0c0,0-.2,0-.3,.1h0v18.5l-.7,.5-.9,.5-1.1,.7-4.3-.3-3.3-.2-1.7-3.1c0,0,0,.1,0,.2h0l-.4,3.3-8.5-.6c-.4,0-.9,0-1.4,0h0c-.4,0-.9,0-1.3-.1h0l-2.4-.5-.8,.6-19.3,.3-.4-.5h0l-19.5,.5-3-.8v-.3l-.5,.2-.8,.3-16.6,.4-1.7-.6v.5l-8.7-.5h-20.3l-.3-.7-1.2,1.1-5-.3h-4c-.2,.2-.6,.2-.9,.3h0c-.5,0-1.3,0-2.1-.7h0l-1.5-1v-2.1h-4.3c0,0,0,.2,0,.3h0v3.8l-3.8-.3c-1.5-.2-2.7-.4-3.8-.4h0l-4.8-.2h-3.8v-.4l-.3,.2-1.2,.9-4.5-.3-4.5,.2c-.3,0-.5,0-.8,0h0c-.3,0-.7,0-1.1-.1h0l-1.3-.3v.4l-5.8-.3h-9.7v-.3h-9.8c0,0-.1,0-.2,0h0c-.2,0-.6,0-1,0h0c-.3,0-.8,0-1.3-.2h0l-2.7-.7v-1.9c-1.2,1.6-2.9,2.9-5.1,3.6h0c-1.4,.4-2.9,.7-4.3,.7h0c-3.1,0-6.3-1.1-8.6-3.6h-.1v-.2h0c-.5-.7-1-1.4-1.3-2.2h0l.2,4.3-.8,.5-.9,.6-1.2,.8-4.6-.4h0Zm59.6-6.3c0-.4,0-.8,0-1.3h0v-1.6h9v4.6l-3.5-.2-5.6,.2v-1.8h0Zm7.4,0v0h0Zm136.2,1.8v-3.3h5.8v1.8c-.1,0-.1,.1-.1,.2h0v1.7l-5.7-.4h0Zm-136.7-22.8h0v-1.7h1.7c0,0,.1,0,.2,0h0v1.7h.1v1.6l-2.1,.4v-2h0Z"/>
          </g>
          <path class="uuid-ac9b4b5a-1923-428b-ab0a-0c602b6753dd" d="M346,59.5c0,2.6-2.1,4.7-4.7,4.7s-4.7-2.1-4.7-4.7,2.1-4.7,4.7-4.7,4.7,2.1,4.7,4.7Z"/>
          <g>
            <path class="uuid-40711e94-6e5a-4daf-a74c-df8ddb470fe8" d="M340.6,58.1h.7c.4,0,.7,0,.7,.5s-.4,.6-.9,.6h-.6v-1.1Zm-.5,3h.5v-1.5h.6l.9,1.5h.6l-1-1.5c.5,0,.9-.3,.9-.9s-.4-1-1.2-1h-1.3v3.4Zm-1.3-1.7c0-1.4,1.1-2.5,2.4-2.4s2.4,1.1,2.4,2.5-1.1,2.5-2.4,2.5-2.4-1.1-2.4-2.5Zm-.5,0c0,1.7,1.3,2.9,2.9,2.9s2.9-1.2,2.9-2.9-1.3-2.9-2.9-2.9-2.9,1.2-3,2.9Z"/>
            <g>
              <path class="uuid-40711e94-6e5a-4daf-a74c-df8ddb470fe8" d="M114.4,62h-4.6c-.5,.2-1.2,.3-1.8,.3h-.6c-.2-.5-.1-1-.1-1.4,0-.8,0-1.3-.6-1.6-.4,0-.8,.3-1.1,.5-.3,.2-.6,.4-.9,.5-2.1,1-4.8,1.5-7.8,1.5s-1.1,0-1.6,0c-5.2-.3-10.2-3.8-12.8-9-1.8-3.6-2.7-8-2.6-13.8l.5-4.5c.9-6,2.7-10.5,5.8-14.2,3.3-3.6,7.6-5.6,11.9-5.6s2.7,.2,4,.6c1.8,.5,3.5,1.2,5,2.2,0,0,0,0,0,0,0,0,0,0,.2,0,.3,0,.6-.1,.7-.4,0-.3,0-.7,0-1,0-.2,0-.5,0-.7h0l.5-.3h10.5l.2,.5-.7,17.7v.2h-5.6l-5.3,.2v-.2c0-3,0-6.1-2.4-7.8-.9-.6-2-.9-3.3-.9s-2.2,.3-3.1,.7c-4.9,2.9-5.2,8.8-5.4,13.6,0,4.4,.1,9.3,4.3,11.5,1.1,.6,2.4,.9,3.7,.9s2.3-.3,3.2-.8c1.1-.7,1.8-1.9,2.1-3.3,0-.3-.2-.6-.6-.7h-5v-7.1l.2-.3,6.1,.7,6.2,.3h4.6l-.3,6.9v4.9l.6,10.3-.3,.2-3.7-.3Zm17.4,.1c-2.5,0-4.8-.9-6.4-2.6-2.1-2.7-2.2-6.3-1.9-9.9l.6-6.7c0-.1,0-.4,0-.6,0-.8,0-1.3-.7-1.4,0,0,0,0-.1,0h-.3c-.2,0-.6,0-.7-.5l.6-4.7h.4l4.6,.3h2.9c0,.5,0,.8,0,1.2,0,1.1,0,2.1-.2,3.2h0v.2c-.3,.1-.6,.1-.8,.1-.4,0-.7,0-.8,.4v1.4l-.5,5.7c0,.4,0,.7,0,1.1,0,2.3,0,4.7,1.9,6.2,.5,.3,1.2,.6,1.9,.6s.4,0,.6,0c1.5-.5,2-1.9,2.4-3.3,.1-.3,.2-.7,.3-1l.5-3.2,.6-7.3c0-.4-.5-.5-1.1-.6-.1,0-.2,0-.3,0h-.2v-.2c-.1-1,0-2,0-3,0-.5,0-1,0-1.5v-.2h6.3c.4,0,.9,0,1.3-.1,.2,0,.4,0,.6,0h.2s0,1,0,1.4c0,1.1,0,2.2,0,3.2h0v.2c-.3,.1-.5,.1-.7,.1h-.4c-.3,0-.5,0-.6,.4l-.3,1.1-.4,8.6c-.4,4.2-1.4,9.2-6.2,10.7-1,.3-2.1,.5-3.2,.5Zm199.9-.6h-1.4l-7.2-13.6c0,0-.2-.1-.4-.1s-.3,0-.4,0l-.3,.5-.5,8c.1,.3,.5,.4,1.1,.4,.3,0,.6,0,.8,.1h.1v.2c0,1.2,0,2.6-.2,4.2v.2l-5.8-.4c-.4,0-.8,0-1.1,0s-.6,0-.8,0h-.2v-.2c0-.9,0-1.8,0-2.8,0-.5,0-1,0-1.4h0v-.2c.4-.1,.7-.1,.9-.1,.5,0,.8,0,.9-.4v-.9l.4-13.7c-.1-.5-.6-.6-1.3-.6-.2,0-.4,0-.6,0h-.2l.2-4.3h.4c1.5,.3,3.3,.3,5,.3,.5,0,1,0,1.4,0h.1l7.2,13.2c.2,0,.3,.1,.5,.1s.2,0,.3-.1l.4-.5,.3-4.9c0-.4,0-.9,0-1.4,.1-.9,.2-1.7-.5-2.1l-1.5-.2v-.2c0-1.1,0-2.3,.2-3.5h0l.4-.3h0c1.3,.2,2.8,.4,4.4,.4s1.9,0,2.9-.1h.1l.3,.4-.2,4.2h-.1c-.3,.2-.7,.2-1,.2-.6,0-1,0-1.2,.5v19.1l-.3,.2-3.3-.2Zm-38-.4v-4.3h.2c.1,0,.3-.1,.5-.1s.2,0,.4,0c.1,0,.2,0,.3,0,.4,0,.6-.1,.7-.4l.2-.5v-14.3c-.2-.3-.4-.4-1-.4s-.3,0-.5,0c-.2,0-.3,0-.5,0-.3,0-.5,0-.6,0h-.1v-.4l.2-4.2,.4-.2,15.8-.3c.1,0,.2,0,.3,0s.3,0,.4,0c.2,0,.4,0,.5,.2,.1,.1,.1,.3,.1,.5l.3,6.4-.4,.2h-.6c-.6,0-1.1,0-1.7,0s-1.3,0-1.8-.1h-.2c-.2-.5-.2-1-.2-1.4,0-.7,0-1.3-.5-1.6h-4.7c-.2,.1-.3,.3-.4,.8v5.5c0,.2,.3,.3,.6,.4l4.3,.3h0c.1,.4,0,.7,0,1.1,0,.2,0,.4,0,.6v.2h-.2c-.8,0-1.5,.1-2.3,.1-.8,0-1.5,0-2.2,0-.3,.1-.4,.5-.4,1.1v5.8l.4,.3c1.6,.2,3.4,.2,5.1,.2,.6-.5,.5-1.2,.5-2.1,0-.5,0-1,0-1.4h0v-.2c.5,0,.8,0,1.2,0s1,0,1.6,.1c.5,0,1,.1,1.5,.1h.2l-.3,7.6-.3,.2-16.6,.3-.3-.4Zm-21.1,.3h0c-.2-1.7-.2-3.4-.2-4.5h0v-.2c.4-.1,.7-.1,1-.2,.6,0,1,0,1.2-.6v-14.3c-.2-.5-.5-.7-1.3-.7s-.5,0-.7,0c-.2,0-.5,0-.7,0s-.5,0-.7,0h0l-.2-.4h0c0-.5,0-1,0-1.5,0-1,0-1.9,.2-2.9v-.2l5.2,.4c.6,0,1.2,.1,1.9,.1s1.1,0,1.7,0c.6,0,1.1,0,1.7,0s.6,0,.9,0h.2v.2c.1,1.3,0,2.8,0,4h0v.2c-.4,0-.6,.1-1,.1s-.4,0-.5,0c-.2,0-.3,0-.5,0-.6,0-.9,.1-1.1,.4v.8l.3,13.7c0,.2,.2,.4,.5,.5l3.8-.3,.3-.4,.2-4.5h.2c.5,0,1,0,1.6,0,.6,0,1.2,0,1.8,0s.5,0,.7,0h.2v3l-.2,7-15.9,.4h-.4Zm-20.8-.3l-.3-4.5h0c.3-.3,.7-.4,1.1-.4,.6,0,.9-.1,1.1-.5v-14.5c-.2-.5-.6-.7-1.3-.7s-.5,0-.7,0c-.3,0-.5,0-.8,0s-.5,0-.7,0h-.1v-.2c0-1.1,0-2.2,0-3.3,0-.4,0-.8,0-1.2v-.2l6.9,.5h4.5v4.3h-.1c-.2,.1-.5,.1-.9,.1s-.3,0-.4,0c-.1,0-.3,0-.4,0-.3,0-.7,0-1,.2l-.2,.5,.4,14.1c.1,.3,.3,.5,.8,.5s.5,0,.7,0c.3,0,.5,0,.8,0s.1,0,.2,0c.1,0,.4,0,.6,0h.5c.5,0,.8,0,1-.5,0-.7,0-1.4,0-2.2,0-.8,0-1.5,.1-2.3v-.2h.2c1.1,.1,2.3,.2,3.5,.2s.8,0,.8,0l-.2,9.8-.4,.2-15.5,.4h-.3Zm-77.7-.1c-.2,0-.4,0-.5,0h-.2v-.2c0-1.1,0-2.2,.1-3.3,0-.6,0-1.1,0-1.7v-.2h.2c.1,0,.3,0,.5,0s.3,0,.4,0c.1,0,.3,0,.4,0,.3,0,.6,0,.7-.2,.3-1,.2-2.2,.2-3.4,0-.5,0-1,0-1.5l-7.2-11c0,0-.2,0-.4,0s-.3,0-.4,0c-.2,0-.3,0-.5,0s-.3,0-.4,0h-.1v-.2c0-.3,0-.6,0-.9,0-1.1,.1-2.2,.5-3.2v-.2h.2c1.8,.5,3.9,.5,5.8,.6,.7,0,1.4,0,2.2,0h.2v3.7h-.1c-.2,.1-.3,.2-.5,.2s-.3,0-.4,0c-.1,0-.2,0-.4,0-.3,0-.5,.1-.6,.4,0,.3,0,.7,.2,1l3.5,5.2c0,0,.2,0,.3,0s.3,0,.4,0l4.4-4.7c.3-.2,.4-.7,.2-1l-.5-.4c-.1,0-.2,0-.4,0-.3,0-.7,0-1,0-.1,0-.3,0-.4,0h-.2v-.2c0-1.2,0-2.4,0-3.6h0l.4-.3c1,0,2,.1,3.2,.1s2.2,0,3.8-.1h.2v4.2h0c-.3,.4-.6,.4-1,.4h-.2c-.4,0-.7,0-.8,.4l-5.6,10.2v4.3c.3,.4,.7,.4,1.3,.4h.6c.2,0,.4,0,.5,0h.1l.2,.3v4.8l-.4,.3-3.5-.2-4.8,.2c-.1,0-.3,0-.4,0Zm35.5,0c-.1,0-.2,0-.3,0h0v-4.1h0c.4-.3,.8-.3,1.3-.3,.7,0,1.2,0,1.5-.6v-1l-1.5-8.5c0-.2-.3-.4-.4-.6,0,0-.2,0-.3,0-.3,0-.6,.2-.8,.5l-5,10.7h-.4l-5-11.7c0,0-.3-.2-.5-.2s-.2,0-.3,0l-.4,.5-.8,3.6-1.3,6.3c.2,.6,.7,.7,1.6,.7,.5,0,1,0,1.4,.2h.1v.2c0,.9,0,1.7,0,2.5,0,.5,0,1,0,1.5v.2h-.2c-.5,0-1-.1-1.4-.2-.8-.1-1.7-.2-2.6-.2l-4.8-.2h-.6v-.2c0-1.5,0-3.1,.3-4.8h0v-.2c.2,0,.3,0,.5,0s.4,0,.6,0c.2,0,.4,0,.6,0,.4,0,.5-.1,.7-.4l2.9-14.7c0-.3-.3-.5-.6-.7,0,0-.2,0-.4,0-.4,0-.8,0-.9-.4l.2-4h.2c2.2,.3,4.3,.5,6.4,.5s.9,0,1.4,0h.1l.5,1.2,2.5,8.1c.1,.2,.3,.3,.5,.3s.2,0,.3,0l.3-.2,3.1-8.5h.1c.3,0,.7,0,1,0,.5,0,1,0,1.5,0,.5,0,1,0,1.5,0s1.1,0,1.6,0c1.4,0,2.8-.2,4.1-.3h1.1l-.2,5.4h-.1c-.4,.2-.8,.2-1.2,.2-.6,0-1.1,0-1.4,.4v4.7l.5,9.2c0,.4,.5,.4,1,.4,.4,0,.8,0,1.1,.3,.2,.2,.2,.5,.1,.8v3.1l-.3,.3-3.7-.2-4.6,.2h0c-.1,0-.3,0-.4,0Zm31.8-.4h-4.3v-.2c0-1,0-2.3,0-3.2h0v-.2c.5-.1,.9-.1,1.3-.1,.7,0,1.4,0,1.7-.6v-.7c-.4-.4-.6-.9-.8-1.4-.3-.7-.6-1.5-1.2-2.1h-7.1l-.4,.3-1.3,3.4c0,.3,0,.6,.5,.8,.6,0,1.2,0,2,.1h.2v.2c0,1.1,0,2.1-.1,3.5v.2h-8.9l-.2-.4,.2-3.7h.1c.3-.1,.7-.2,1-.2,.2,0,.4,0,.6,0l.4-.5,3-8.8,2.1-6.3c-.1-.5-.5-.7-1.2-.7s-.4,0-.6,0c-.2,0-.4,0-.6,0-.4,0-.6,0-.8-.1h-.1l.5-4.3h7.5c.6-.1,1.2-.2,1.9-.2,.6,0,1.3,0,1.9-.1h.2l6,21.1c.2,.4,.7,.5,1.3,.5,.3,0,.6,0,.9,0h.1v.2c.1,1.1,0,2.1,0,3.2v.8l-5.6-.3Zm-6.9-19.3c-.2,0-.3,0-.5,.2-.8,2.1-1.7,4.4-2.6,7.2,0,.2,0,.4,.1,.5,0,.1,.2,.2,.3,.2h5.1c.2,0,.7-.3,.6-.7l-2.3-7c-.1-.3-.5-.5-.7-.5Zm-68.5,19.5h-7.2v-.3c-.3-1-.2-1.9-.1-2.9v-.6h.2c.3-.2,.6-.2,.8-.2s.6,0,.7,0c.6,0,.9-.1,1.1-.6l-.2-.7-1.3-3.1-.4-.3-6.8-.2c-.2,0-.6,.4-.6,.6l-1.2,3.2c0,.3,0,.5,.2,.6,.2,.3,.7,.3,1.2,.3,.4,0,.9,0,1.2,.2h.1v3.6h-7c0,0-.2,0-.2,0-.2,0-.4,0-.6,0-.2,0-.4,0-.6,0s-.4,0-.5,0h-.2v-4.6h.2c.2-.1,.5-.1,.7-.1h.3c.6,0,.8,0,.9-.5l5.3-14.4c0-.4-.1-.6-.5-.9h-1.5v-.3c0-1.2,.1-2.5,.3-4v-.2h6.8l2.7-.3h.7l6.5,20.7c.2,.4,.4,.4,.9,.5,.3,0,.6,0,.9,.2h.1l-.3,4.4h-2.5Zm-9.6-19.6c-.4,0-.6,0-.7,.3l-2.6,7c0,.5,.1,.9,.5,1h5.1c.4-.2,.6-.4,.6-.7l-2.3-7c0-.3-.3-.5-.5-.5h0Z"/>
              <path class="uuid-85d8853d-40c2-42e6-8f38-f405de6d42ce" d="M98.1,14.8c1.3,0,2.6,.2,4,.6,1.8,.5,3.4,1.2,4.9,2.2,0,0,.2,0,.3,0,.4,0,.8-.2,.9-.6,.2-.5,0-1.2,.1-1.8h10.7l.2,.2-.7,17.6h-5.4l-5.1,.2c0-2.9,0-6.1-2.5-8-.9-.6-2.2-.9-3.4-.9s-2.3,.3-3.2,.8c-4.8,2.9-5.2,8.6-5.5,13.7,0,4.4,.1,9.4,4.4,11.7,1.1,.6,2.4,.9,3.8,.9s2.3-.2,3.3-.8c1.2-.8,1.9-2.1,2.2-3.5-.1-.4-.3-.8-.7-1h-4.9v-7l6.1,.6,6.2,.3h4.4l-.3,6.7v4.9l.6,10.2h-.2l-3.6-.2h-4.6c-.6,.2-1.2,.3-1.8,.3s-.3,0-.4,0c-.4-1,.5-2.4-.8-3,0,0,0,0,0,0-.8,0-1.4,.8-2.1,1-2.3,1.1-5,1.5-7.7,1.5s-1.1,0-1.6,0c-5.4-.3-10.2-4.1-12.6-8.8-2.1-4.1-2.6-8.9-2.6-13.7l.5-4.5c.7-5.2,2.3-10,5.8-14.1,3.1-3.4,7.3-5.5,11.7-5.5m69.6,20.5c2.5,.6,5.4,.5,8,.6v3.4c-.2,0-.3,0-.5,0-.3,0-.5,0-.8,0s-.6,0-.8,.5c-.1,.4,0,.9,.2,1.2l3.5,5.2c.1,.1,.3,.2,.5,.2s.4,0,.5-.1l4.4-4.7c.4-.3,.5-.9,.2-1.3l-.6-.5c-.1,0-.3,0-.4,0-.5,0-1-.1-1.4-.2,0-1.2,0-2.4,0-3.6h.3c1,0,2.1,0,3.1,0s2.5,0,3.8-.1v3.9c-.1,.2-.4,.3-.7,.3s-.1,0-.2,0c-.4,0-.8,0-1,.5l-5.6,10.2v4.4c.3,.5,.9,.6,1.5,.6s.4,0,.6,0,.3,0,.5,0v4.8l-.2,.2-3.4-.2-4.9,.2c-.1,0-.3,0-.4,0s-.3,0-.5,0c0-1.7,.1-3.3,.2-5,.1,0,.3,0,.4,0,.3,0,.5,0,.8,0s.7,0,.9-.3c.4-1.5,.1-3.4,.2-5l-7.2-11.1c-.2-.1-.3-.2-.5-.2s-.6,0-.8,0-.3,0-.4,0c.1-1.3,.1-2.8,.5-4m70.9,0l5.9,20.9c.4,.9,1.5,.5,2.3,.7,.1,1.3,0,2.5-.1,3.8l-5.3-.3h-4.2c0-1.1,0-2.3,0-3.2,1-.3,2.5,.3,3-.9v-.8c-.8-1.2-1.1-2.6-2.1-3.7h-7.3l-.5,.4-1.3,3.5c-.2,.5,.2,.9,.6,1.1,.6,.1,1.3,.1,2.1,.1,0,1.2,0,2.3-.1,3.5h-8.5v-3.8c.6-.2,1.3,0,1.8-.2l.5-.6,3-8.9,2.1-6.4c-.2-.8-.8-.9-1.4-.9s-.9,0-1.3,0-.5,0-.7-.1l.5-3.9h7.3c1.2-.1,2.5-.3,3.7-.3m-1.7,14.4c.4-.1,.9-.5,.8-1l-2.3-7c-.1-.4-.5-.6-.9-.6-.2,0-.5,0-.6,.3-1,2.4-1.9,4.8-2.7,7.3,0,.5,0,1,.6,1h5.1m-77.3-14.3h.5l6.5,20.6c.4,.9,1.3,.4,2,.8l-.2,4h-2.3l-5-.3h-2.1c-.3-1-.1-2,0-3.2,.2,0,.5-.1,.7-.1,.2,0,.4,0,.7,0,.6,0,1.1,0,1.3-.8l-.2-.8-1.4-3.2-.5-.4-6.9-.2c-.3,.1-.7,.4-.8,.8l-1.1,3.1c-.1,1.7,1.8,.9,2.7,1.4v3.2h-6.8c0,0-.1,0-.2,0-.4,0-.8,0-1.2,0s-.3,0-.5,0v-4.3c.3,0,.5,0,.8,0,0,0,.2,0,.3,0,.5,0,1,0,1.1-.7l5.3-14.3c.2-.6-.3-.9-.7-1.2h-1.3c0-1.3,.1-2.7,.3-4.1h6.6l2.7-.3m-.9,14.4c.4-.2,.8-.5,.7-1l-2.3-7.1c-.1-.3-.4-.6-.7-.6h0c-.4,0-.7,0-.9,.4l-2.6,7c0,.5,0,1.1,.6,1.2h5.2m33.9-14.3c2.1,.2,4.2,.5,6.4,.5s.9,0,1.4,0l.4,1.1,2.5,8.1c.2,.3,.4,.4,.7,.4s.2,0,.3,0l.4-.3,3.1-8.4c.3,0,.7,0,1,0,1,0,2,0,3.1,0s1.1,0,1.6,0c1.7,0,3.4-.2,5-.4l-.2,5.1c-.9,.4-2.1-.1-2.7,.7v4.8l.5,9.2c.3,1.3,2.6-.1,2.2,1.5v3.1l-.2,.2-3.6-.2-4.6,.2c-.1,0-.3,0-.5,0s-.1,0-.2,0v-3.8c.8-.5,2.3,.2,2.8-.9v-1.1l-1.5-8.5c0-.3-.3-.5-.5-.7-.1,0-.3,0-.4,0-.4,0-.8,.3-1,.6l-4.9,10.6h-.1l-5-11.6c-.2-.2-.4-.3-.7-.3s-.3,0-.4,.1l-.5,.5-.8,3.6-1.3,6.3c.4,1.4,2.1,.7,3.1,1.1,0,1.4,0,2.7,0,4-1.3-.1-2.7-.4-4.1-.4l-4.8-.2h-.4c0-1.5,0-3.2,.3-4.7,0,0,.2,0,.3,0,.4,0,.8,.1,1.1,.1s.7-.1,.9-.5l3-14.7c0-.4-.4-.7-.7-.9-.4-.1-1.1,0-1.2-.3l.2-3.7m-69.3,.4l4.5,.5h2.7c0,1.4,0,2.7-.1,4.2-.5,.3-1.4-.2-1.7,.6v1.5l-.5,5.8c0,2.6-.3,5.6,2,7.5,.6,.3,1.3,.7,2,.7s.5,0,.7-.1c2-.6,2.3-2.8,2.9-4.4l.5-3.2,.6-7.3c-.2-.8-1-.8-1.6-.9-.1-1.4,0-2.9,0-4.4h6.1c.6,0,1.3,0,1.9-.1,0,1.5,.1,3,0,4.5-.1,0-.3,.1-.5,.1s-.3,0-.4,0c-.3,0-.7,0-.8,.5l-.3,1.1-.4,8.7c-.4,4.3-1.4,9-6,10.5-1,.3-2.1,.5-3.1,.5-2.3,0-4.6-.8-6.2-2.5-2.1-2.6-2.1-6.4-1.9-9.8l.6-6.7c-.1-.8,.2-1.9-.8-2.2,0,0-.1,0-.2,0-.1,0-.2,0-.3,0-.2,0-.5,0-.5-.3l.6-4.5h.3m127.2,.1l6.7,.5h4.5v4c-.4,0-.6,0-.9,0s-.6,0-.9,0c-.4,0-.8,0-1.2,.3l-.3,.6,.4,14.2c.2,.5,.5,.7,1,.7s1-.2,1.5-.2c0,0,.1,0,.2,0,.2,0,.4,0,.6,0s.3,0,.5,0c.5,0,.9,0,1.1-.6,.2-1.5,0-3,.2-4.5,1.2,.1,2.3,.2,3.5,.2s.4,0,.6,0l-.2,9.4h-.3l-15.4,.5h-.2l-.3-4.3c.7-.5,1.9,0,2.3-.9v-14.5c-.3-.7-.8-.9-1.5-.9s-1,0-1.5,0-.4,0-.6,0c0-1.5,0-3,.1-4.5m20.8,.1l5,.4c.6,.1,1.3,.1,1.9,.1,1.1,0,2.3-.1,3.4-.1,.3,0,.6,0,.9,0,.1,1.3,0,2.7,0,4-.2,0-.5,.1-.8,.1s-.7,0-1.1,0c-.5,0-1,0-1.2,.5l-.2,.8,.5,13.7c.1,.3,.3,.6,.6,.6l3.9-.3,.4-.5v-4.4c1.2,0,2.4,.2,3.5,.2s.5,0,.7,0v2.8l-.2,6.8-15.7,.4h-.2c-.1-1.4-.2-3-.2-4.4,.7-.3,1.9,.2,2.2-.9v-14.3c-.2-.7-.8-.9-1.5-.9s-1,0-1.4,0-.5,0-.7,0v-.2c0-1.4-.1-2.9,0-4.3m38.5,.1c0,0,.2,0,.3,0s.3,0,.4,0c.3,0,.5,0,.4,.5l.3,6.3-.3,.2c-.7,0-1.5,0-2.3,0s-1.2,0-1.8,0c-.4-.9,.3-2.4-.8-3h-4.7c-.4,.2-.5,.6-.6,1v5.5c.1,.3,.4,.5,.7,.6l4.2,.3c.2,.4,0,1,0,1.4-1.5,.1-3,0-4.5,.2-.6,.2-.5,.9-.5,1.4v5.8l.5,.4c1.6,.2,3.5,.2,5.2,.2,1.1-.8,.4-2.4,.7-3.6,.3,0,.7,0,1,0,1,0,2,.2,3,.2l-.3,7.2-.2,.2-16.5,.3-.2-.3v-4c.2,0,.4,0,.5,0,.2,0,.5,0,.7,0,.4,0,.7,0,.9-.5l.2-.5v-14.3c-.2-.5-.7-.6-1.2-.6s-.6,0-.9,0-.4,0-.6,0v-.2l.3-4h.3l15.8-.4m6.3,.2c2,.5,4.3,.4,6.4,.5l7.2,13.2c.2,0,.4,.2,.6,.2s.3,0,.4-.2l.4-.6,.3-5c-.3-1.2,.8-2.9-.5-3.7l-1.4-.2c0-1.2,0-2.3,.2-3.5h.2c1.4,.1,2.9,.2,4.4,.2s1.9,0,2.9-.1l.2,.2-.2,4c-.8,.4-1.9-.2-2.3,.8v19h-4.6l-7.2-13.6c-.2-.2-.4-.2-.6-.2s-.4,0-.5,.1l-.3,.6-.5,8.1c.3,.9,1.4,.5,2.1,.7,0,1.4,0,2.9-.2,4.2l-5.6-.4c-.4,0-.8,0-1.1,0s-.5,0-.8,0c0-1.3,0-2.8,0-4.2,.6-.3,1.5,.2,1.9-.7v-1l.5-13.7c-.2-.9-1.3-.8-2.1-.9l.2-3.9h.1M98.1,14.4c-4.4,0-8.7,2-12,5.6-3.2,3.7-5,8.3-5.9,14.3l-.5,4.5c0,5.9,.8,10.3,2.6,14,2.6,5.2,7.7,8.8,12.9,9.1,.5,0,1.1,0,1.6,0,3,0,5.7-.5,7.9-1.5,.4-.1,.7-.3,1-.5,.3-.2,.7-.4,1-.5,.4,.2,.4,.6,.4,1.3,0,.5,0,1,.1,1.4v.2h.8c.6,0,1.3,0,1.9-.2h4.6l3.6,.2h.3l.2-.2h.2v-.4l-.6-10.2v-4.9l.3-6.6v-.4h-4.8l-6.2-.4-5.9-.6h-.2v.2l-.2,.2h0v7.3h.3l.2,.2h4.8c.2,.1,.3,.3,.4,.6-.2,.9-.7,2.2-2,3.1-.8,.5-1.9,.7-3,.7s-2.6-.3-3.6-.9c-4.1-2.2-4.1-7-4.2-11.3,.2-4.7,.5-10.6,5.3-13.4,.8-.4,1.9-.7,3-.7s2.4,.3,3.2,.9c2.3,1.7,2.4,4.6,2.4,7.7v.4h.4l5.1-.2,5.4,.2h.3v-.2h.2v-.2h0l.7-17.7h0v-.2l-.2-.3v-.2h-11.2l-.3,.2v.3c0,.2,0,.5,0,.7,0,.4,0,.7,0,1,0,.2-.3,.3-.5,.3s0,0-.1,0c-1.5-.9-3.1-1.7-5-2.2-1.3-.4-2.7-.6-4.1-.6h0Zm69.4,20.4v.4c-.4,1-.5,2.1-.6,3.2,0,.3,0,.6,0,.9v.3h.3c.2,.2,.3,.2,.5,.2s.3,0,.5,0c.1,0,.2,0,.4,0s.2,0,.2,0l7.1,10.9c0,.5,0,.9,0,1.4,0,1.1,.1,2.2-.1,3.2-.1,0-.3,.1-.6,.1s-.2,0-.4,0c-.1,0-.3,0-.4,0-.2,0-.3,0-.5,0h-.3v.4c0,.6,0,1.1-.1,1.7,0,1.1-.1,2.2-.1,3.3v.3h.3c.2,.1,.4,.1,.6,.1s.3,0,.5,0l4.8-.2,3.4,.2h.3l.2-.2h.2v-5h0v-.4l-.2-.2h-.2c-.2,0-.3,0-.6,0s-.2,0-.3,0c-.1,0-.2,0-.3,0-.6,0-.9,0-1.1-.3v-4.2l5.5-10.1h0c0-.3,.2-.3,.6-.3h.2c.3,0,.8,0,1.1-.4h0v-4.6h-.5c-1.5,.1-2.7,.2-3.7,.2s-2.1,0-3.1-.1h-.5l-.2,.2v.3c0,1.2-.1,2.5-.1,3.7v.4h.4c.1,0,.3,0,.4,0,.3,0,.7,.1,1,.1s.2,0,.3,0l.5,.3c.1,.2,0,.5-.1,.7l-4.4,4.7c0,0-.1,0-.2,0s-.1,0-.2,0l-3.5-5.2c-.2-.2-.2-.5-.1-.8,0-.2,.1-.2,.4-.2s.2,0,.3,0c.1,0,.3,0,.4,0,.3,0,.5,0,.6-.1h.2v-4.2h-.4c-.7,0-1.4,0-2.2,0-2,0-4,0-5.8-.5h-.4Zm71.5,0h-.3c-.6,0-1.3,0-1.9,.1-.6,0-1.2,0-1.8,.1h-7.7v.5l-.5,3.9v.3h.2c.2,.2,.5,.3,.9,.3s.4,0,.7,0c.2,0,.4,0,.6,0,.7,0,.9,.2,1,.5l-2,6.3-3,8.8-.3,.4c-.2,0-.4,0-.5,0-.4,0-.7,0-1.1,.1h-.3v.4l-.2,3.5h0v.4l.3,.2h9.2v-.4c.2-1.4,.2-2.4,.2-3.5v-.4h-.4c-.7,0-1.3,0-1.9-.1-.4-.2-.4-.4-.3-.6l1.3-3.4,.3-.2h7c.5,.6,.8,1.3,1.1,2,.2,.5,.4,1,.7,1.5v.6c-.2,.4-.6,.4-1.4,.4-.4,0-.9,0-1.3,.1h-.2v.3c-.2,1-.2,2.3-.1,3.3v.4h4.6l5.3,.4h.4v-1c.2-1.1,.3-2.1,.2-3.3v-.3h-.3c-.3-.2-.6-.2-.9-.2-.7,0-1,0-1.1-.4l-5.9-20.9v-.3h0Zm-4.7,6.7c0,0,.2,0,.3,0,.2,0,.5,.1,.5,.4l2.3,7c0,.1-.3,.3-.5,.4h-5c0,0-.1,0-.1-.1,0,0,0-.2,0-.4,.9-2.8,1.8-5,2.6-7.1h0Zm-42-6.7v.4l-.2,3.7h0v.2c.2,.6,.8,.6,1.2,.6,.1,0,.2,0,.3,0,.2,.1,.4,.3,.4,.5l-2.9,14.6c0,.2-.2,.3-.5,.3s-.3,0-.5,0c-.2,0-.4,0-.6,0-.2,0-.3,0-.4,0h-.3v.3c-.3,1.6-.4,3.3-.4,4.8v.4h.8l4.8,.2c.9,0,1.8,.1,2.6,.2,.5,0,1,.1,1.5,.2h.4v-.4c0-.5,0-1,0-1.5,0-.8,0-1.7,0-2.6v-.2h-.2c-.4-.3-1-.3-1.4-.4-.8,0-1.2,0-1.4-.5l1.3-6.2,.8-3.5,.4-.4s0,0,.1,0c.1,0,.3,0,.4,.1l4.9,11.5v.2h.7v-.2l5-10.6c.1-.2,.3-.4,.6-.4s.1,0,.2,0c.2,.2,.3,.3,.3,.4l1.4,8.5v1c-.1,.3-.5,.4-1.2,.4-.5,0-1,0-1.4,.2h-.2v4.4h.2c.1,.2,.3,.2,.4,.2s.3,0,.4,0h0l4.5-.2,3.6,.2h.3l.2-.3h.1v-3.3c.1-.4,0-.7-.1-1-.3-.4-.8-.4-1.2-.4-.6,0-.8,0-.8-.3l-.4-9.1v-4.6c.1-.2,.5-.3,1.1-.3,.4,0,.9,0,1.3-.2h.2v-.4l.2-5.1v-.5h-1.3c-1.4,.3-2.8,.4-4.1,.4-.5,0-1,0-1.6,0s-1,0-1.5,0c-.5,0-1,0-1.5,0s-.7,0-1.1,0h-.3v.3l-3.1,8.3-.3,.2c0,0,0,0-.1,0-.2,0-.3,0-.4-.2l-2.5-8-.4-1.1v-.3h-.4c-.4,0-.9,0-1.4,0-2.1,0-4.2-.2-6.4-.5h-.4Zm-32.6,0h0l-2.7,.2h-6.9v.5c-.2,1.5-.3,2.8-.4,4v.4h1.6c.4,.4,.5,.6,.4,.8l-5.3,14.3h0c0,.4-.2,.4-.7,.4h-.3c-.2,0-.5,0-.8,.1h-.3v5h.2c.2,.1,.4,.2,.6,.2s.4,0,.6,0c.2,0,.4,0,.6,0s.1,0,.2,0h7.2v-3.9h-.1c-.4-.3-.8-.3-1.3-.3-.4,0-.9,0-1.1-.2,0,0-.1-.3-.1-.5l1.1-3.1h0c0-.2,.2-.4,.5-.5l6.7,.2,.3,.2,1.3,3v.6c0,.3-.2,.4-.7,.4s-.2,0-.3,0c-.1,0-.2,0-.3,0-.3,0-.6,0-.9,.1h-.2v.8c-.1,1-.2,1.9,0,2.9v.3h7.4l2.3,.2h.4v-.4l.3-4v-.3h-.2c-.3-.3-.7-.3-1-.4-.5,0-.7,0-.8-.3l-6.5-20.5v-.3h-.9Zm-3.8,6.6s0,0,.5,0c.1,0,.3,.2,.4,.4l2.3,7c0,.1,0,.3-.4,.5h-5.1c-.2-.1-.3-.4-.3-.8l2.6-7h0Zm-32.6-6.3h-.4l-.2,.2v.2l-.6,4.5h0c0,.4,.2,.8,.9,.8s.1,0,.2,0c0,0,.1,0,.2,0s0,0,.1,0c.4,.1,.4,.4,.5,1.2,0,.2,0,.4,0,.6l-.6,6.7c-.3,3.6-.2,7.3,2,10.1,1.6,1.7,4,2.7,6.5,2.7s2.2-.2,3.3-.5c4.9-1.6,5.9-6.7,6.3-10.9l.4-8.7,.3-1.1c0-.2,0-.2,.4-.2s.1,0,.2,0c0,0,.2,0,.2,0,.2,0,.5,0,.7-.2h.2v-.3c0-1.1,0-2.1,0-3.3,0-.4,0-.8,0-1.2v-.4h-.4c-.2,0-.4,0-.6,0-.4,0-.9,0-1.3,.1h-6.5v.4c0,.5,0,1,0,1.5,0,1,0,2,0,3v.3h.3c.1,0,.2,0,.4,.1,.6,0,.9,.2,.9,.4l-.6,7.2-.5,3.2c-.1,.3-.2,.6-.3,.9-.4,1.3-.9,2.7-2.3,3.2-.2,0-.4,0-.6,0-.6,0-1.2-.3-1.8-.6-1.7-1.4-1.7-3.8-1.8-6,0-.4,0-.8,0-1.2l.4-5.7v-1.4c.2-.2,.3-.2,.7-.2,.3,0,.6,0,.8-.1h.2v-.3c.2-1.1,.2-2.1,.2-3.3,0-.4,0-.7,0-1.1v-.4h-.4l-2.7,.2-4.5-.5h0Zm126.9,.2v.4c0,.4,0,.8,0,1.2,0,1.1-.1,2.2,0,3.3v.3h.3c.2,.1,.5,.2,.8,.2s.6,0,.8,0c.3,0,.5,0,.7,0,.6,0,.8,.1,1,.5v14.4c0,.2-.3,.3-.8,.3-.4,0-.9,0-1.3,.4h-.2v.4l.3,4.2v.3h.4v.2h.1l15.4-.4h.4l.3-.2v-.3l.2-9.4v-.4h-.4c-.2,0-.4,0-.6,0-1.2,0-2.4-.1-3.5-.2h-.4v.4c-.1,.8-.1,1.5-.1,2.3,0,.7,0,1.4,0,2.2-.1,.2-.3,.3-.7,.3s-.2,0-.2,0c0,0-.2,0-.3,0-.2,0-.4,0-.7,0,0,0,0,0-.1,0-.3,0-.6,0-.8,.1-.3,0-.5,0-.7,0-.3,0-.4,0-.5-.3l-.4-14.1,.2-.4c.2-.1,.5-.2,.9-.2s.3,0,.4,0c.2,0,.3,0,.5,0,.4,0,.7,0,.9-.1h.3v-4.3h0v-.2h0v-.4h-4.8l-6.6-.4h-.4Zm20.9,.1v.4c-.2,.9-.2,1.9-.2,2.9,0,.5,0,1,0,1.5h0v.2l.2,.2v.2h.3c.2,.1,.5,.1,.8,.1s.5,0,.7,0c.2,0,.5,0,.7,0,.7,0,.9,.2,1,.5v14.2c0,.4-.3,.4-1,.4-.3,0-.7,0-1,.2h-.2v.4c0,1.2,0,2.9,.2,4.4v.3h.6l15.7-.2h.4v-.4l.2-6.8v-3.2h-.5c-.2,0-.5,0-.7,0-.6,0-1.2,0-1.8,0-.5,0-1.1,0-1.6,0h-.4v.4l-.2,4.3-.2,.2-3.7,.3c0,0-.2-.2-.3-.3l-.5-13.6v-.7c.3-.2,.6-.3,1-.3s.3,0,.5,0c.2,0,.4,0,.6,0,.4,0,.7,0,.9-.1h.3v-.4c0-1.2,.2-2.7,0-4v-.4h-.4c-.3,0-.6,0-.9,0-.6,0-1.2,0-1.7,0-.6,0-1.1,0-1.7,0s-1.3,0-1.9-.1l-5-.4h-.4Zm38.9,.1l-15.8,.3h-.4l-.2,.2v.3l-.3,4h0v.6h.3c.2,.1,.4,.2,.7,.2s.3,0,.5,0c.1,0,.3,0,.4,0,.5,0,.6,.1,.7,.3v14.7c-.2,.2-.3,.3-.6,.3s-.2,0-.3,0c-.1,0-.3,0-.4,0-.2,0-.4,0-.5,0h-.3v4.4h-.1v.3l.3,.3v.2h.3l16.5-.3h.2l.2-.2h.2v-.3l.3-7.2v-.4h-.4c-.5,0-1,0-1.5-.1-.5,0-1-.1-1.6-.1s-.7,0-1.1,0h-.3v.3c-.2,.5-.2,1-.1,1.5,0,.8,0,1.4-.4,1.8-1.6,0-3.3,0-4.9-.2l-.2-.2v-5.6h0c0-.6,0-.9,.2-1,.7,0,1.4,0,2.1,0,.7,0,1.5,0,2.3,0h.4v-.5c0-.2,0-.3,0-.5,0-.3,0-.7,0-1v-.2h-.4l-4.2-.3c-.1,0-.3-.1-.4-.3v-5.4c0-.3,.1-.5,.2-.5h4.6c.4,.1,.4,.6,.4,1.3,0,.5,0,1,.2,1.4v.2h.3c.5,0,1.1,.1,1.8,.1s1.1,0,1.7,0h.8l.3-.2h.2v-.4l-.3-6.2c0-.3,0-.5-.2-.6-.2-.2-.5-.3-.7-.3s-.2,0-.2,0c0,0-.1,0-.2,0s-.1,0-.1,0h-.2Zm6.3,.1h-.2l-.2,.2v.2l-.2,3.9v.3h.3c.2,.1,.4,.1,.6,.2,.7,0,1,.2,1.1,.5l-.3,13.7v.9c-.2,.2-.4,.3-.8,.3-.3,0-.6,0-.9,.1h-.3v.4c0,.5,0,1,0,1.4,0,.9,0,1.9,0,2.8v.3h.3c.3,.1,.5,.1,.8,.1s.7,0,1.2,0l5.6,.4h.4v-.4c.3-1.7,.3-3.1,.2-4.3v-.3h-.3c-.3-.2-.6-.2-.9-.2-.6,0-.8,0-.9-.3l.5-7.9,.2-.4c0,0,.2,0,.2,0,.1,0,.2,0,.3,0l7.1,13.4v.2h1.7l3.2,.3h.2l.2-.2h.2v-19.3c0-.3,.3-.3,.9-.3,.4,0,.8,0,1.1-.2h.2v-.3l.2-4h0v-.3l-.2-.2v-.2h-.4c-1,0-1.9,.1-2.8,.1-1.6,0-3-.1-4.3-.3h-.5l-.2,.2v.2c-.3,1.2-.3,2.5-.2,3.6v.4h.4l1.3,.2c.5,.4,.4,1,.3,1.9,0,.5-.2,1,0,1.5l-.3,4.8-.3,.5s0,0,0,0c0,0-.2,0-.3,0l-7.1-13v-.2h-.3c-.5,0-.9,0-1.4,0-1.7,0-3.4,0-4.9-.4h-.1Z"/>
            </g>
            <path class="uuid-5a67c2d4-9b9b-4e54-9bfb-7074dff86285" d="M141.4,36.2h-6.1c0,1.5-.2,3,0,4.4,.6,.1,1.5,0,1.6,.9l-.6,7.3-.5,3.2c-.6,1.6-.9,3.8-2.9,4.4-1,.3-1.9-.1-2.7-.6-2.2-1.8-1.9-4.9-2-7.5l.4-5.8v-1.5c.4-.8,1.2-.4,1.8-.6,.2-1.4,.1-2.8,.1-4.3h-2.7l-4.5-.3h-.3l-.6,4.6c0,.5,.6,.3,1,.3,1,.3,.7,1.4,.8,2.2l-.6,6.7c-.2,3.4-.2,7.1,1.9,9.8,2.3,2.5,6.2,3,9.4,2,4.6-1.5,5.7-6.3,6-10.5l.4-8.7,.3-1.1c.2-.9,1.2-.3,1.7-.6,0-1.4,0-2.9,0-4.5-.6,0-1.3,0-1.9,.1Zm39.5-.1h-.3c0,1.3-.1,2.6,0,3.7,.5,0,1.2,.2,1.8,.1l.6,.5c.3,.4,.2,1-.2,1.3l-4.4,4.7c-.3,.2-.7,.2-1,0l-3.5-5.2c-.3-.3-.3-.8-.2-1.2,.3-1,1.4-.3,2-.6v-3.4c-2.6-.1-5.5,0-8-.6-.4,1.2-.4,2.7-.5,4,.6,.2,1.3-.3,1.8,.2l7.2,11.1c0,1.6,.3,3.5-.2,5-.6,.5-1.4,.1-2.1,.3,0,1.7-.2,3.3-.2,5,.3,0,.6,0,.9,0l4.9-.2,3.4,.2,.2-.2v-4.8c-1-.1-2.2,.2-2.7-.6v-4.4l5.6-10.2c.4-1,1.5-.2,2-.8v-3.9c-2.3,.1-4.7,.2-6.9,0Zm35.3,20l-.4-9.2v-4.8c.5-.8,1.7-.4,2.6-.7l.2-5.1c-1.5,.1-3.3,.3-5,.4-1.8,.2-3.9,0-5.7,0l-3.1,8.4-.4,.3c-.4,.2-.9,0-1.1-.4l-2.5-8.1-.4-1.1c-2.7,.1-5.3-.2-7.8-.4l-.2,3.7c.2,.4,.8,.2,1.2,.3,.3,.2,.7,.5,.7,.9l-3,14.7c-.4,1-1.6,.3-2.3,.5-.2,1.5-.3,3.2-.3,4.7h.4l4.8,.2c1.4,0,2.8,.3,4.1,.4,0-1.3,.2-2.6,0-4-1-.5-2.7,.2-3.1-1.1l1.3-6.3,.8-3.6,.5-.5c.3-.2,.9,0,1.1,.2l5,11.6h.1l4.9-10.6c.2-.5,.8-.8,1.3-.6,.2,.2,.5,.4,.5,.7l1.4,8.5v1.1c-.4,1.2-1.9,.5-2.7,.9v3.8c.2,.1,.4,0,.7,0l4.6-.2,3.6,.2,.2-.2v-3.1c.4-1.6-1.9-.2-2.2-1.5ZM108.7,15.2h-.4c0,.7,0,1.3-.1,1.9-.1,.5-.7,.6-1.2,.5-1.5-1-3.2-1.7-4.9-2.2-6-1.7-11.7,.6-15.7,4.9-3.4,4.1-5,8.9-5.8,14.1l-.5,4.5c0,4.8,.5,9.6,2.6,13.7,2.4,4.8,7.2,8.5,12.6,8.8,3.2,.2,6.6-.2,9.3-1.5,.7-.2,1.3-1,2.2-1,1.3,.6,.4,2,.8,3,.7,0,1.5,0,2.2-.2h4.6l3.6,.2h.2l-.5-10.3v-4.9l.3-6.7h-4.4l-6.2-.4-6-.6v6.9h4.8c.4,.2,.6,.6,.7,1-.2,1.4-.9,2.7-2.2,3.5-2,1.2-5,1-7-.1-4.3-2.3-4.4-7.3-4.4-11.7,.3-5.2,.7-10.9,5.5-13.7,1.9-1,4.8-1,6.6,.2,2.5,1.9,2.6,5.1,2.5,8l5.1-.2,5.4,.2h0l.7-17.7-.2-.3h-10.3Zm155.3,35.8c-.2,1.5,0,3-.2,4.5-.4,1-1.5,.4-2.2,.7-.9-.1-2.2,.7-2.7-.5l-.4-14.2,.3-.6c.8-.5,1.9,0,2.9-.3v-3.9h-4.4l-6.7-.5c0,1.4-.2,3-.1,4.5,1.2,.3,3.1-.7,3.6,.8v14.5c-.3,1-1.5,.4-2.2,.9l.3,4.2h.2l15.4-.3h.3l.2-9.5c-1.4,0-2.8,0-4.1-.2Zm43.1-7.8c1.3,.2,2.7,0,4,0l.3-.2-.3-6.3c.1-.7-.7-.3-1.1-.5l-15.8,.3h-.3l-.3,4.1v.2c.9,.3,2.3-.4,2.7,.7v14.9c-.5,.9-1.5,.4-2.2,.6v4.3l16.6-.3,.2-.2,.3-7.2c-1.4,0-2.7-.4-4-.1-.3,1.2,.4,2.8-.7,3.6-1.7,0-3.6,0-5.2-.2l-.5-.4v-5.8c0-.5,0-1.2,.5-1.4,1.4-.1,3,0,4.5-.2,0-.5,.1-1,0-1.4l-4.2-.3c-.3,0-.6-.3-.7-.6v-5.5c0-.4,.2-.9,.6-.9h4.7c1.2,.5,.4,2,.8,2.9Zm-22.2,8v4.4l-.6,.5-3.9,.3c-.3,0-.5-.4-.6-.6l-.5-13.7,.2-.8c.6-.9,2.1-.2,3.1-.6,0-1.3,.1-2.7,0-4-2.1-.1-4.2,.3-6.2,0l-5-.4c-.2,1.4-.1,2.9-.2,4.3v.2c1.3,.3,3.3-.6,3.7,.9v14.3c-.2,1.1-1.5,.6-2.2,.9,0,1.4,0,3,.2,4.4h.2l15.7-.3,.2-6.8v-2.8c-1.4,0-2.9-.1-4.1-.1Zm52.6-9.6l.2-4-.2-.2c-2.5,.2-5,.2-7.3-.2h-.2c-.2,1.2-.2,2.4-.2,3.6l1.4,.2c1.3,.8,.2,2.6,.5,3.7l-.3,5-.4,.6c-.3,.3-.7,.1-1,0l-7.2-13.2c-2.2,0-4.5,0-6.4-.5h-.1l-.2,4c.7,.2,1.9,0,2.1,.9l-.3,13.7v1c-.4,.8-1.3,.4-2,.7,0,1.4-.1,2.9,0,4.2,.6,.1,1.3,0,1.9,0l5.6,.4c.2-1.3,.3-2.8,.2-4.2-.7-.2-1.8,.1-2.1-.7l.5-8.1,.3-.6c.3-.2,.8-.2,1.1,.1l7.2,13.4h1.3l3.2,.3h.2v-19.1c.3-1,1.5-.5,2.3-.8Zm-170.8,14.4l-6.5-20.5h-.5l-2.7,.2h-6.6c-.2,1.4-.3,2.8-.3,4.1h1.3c.4,.4,.8,.7,.7,1.3l-5.3,14.3c-.2,1.1-1.3,.5-2,.8v4.3c.5,.2,1.1,0,1.8,0h6.7v-3.2c-.8-.4-2.7,.3-2.6-1.4l1.1-3.1c0-.4,.5-.7,.8-.8l6.9,.2,.5,.4,1.4,3.2,.2,.8c-.4,1.3-1.8,.5-2.7,.9,0,1.2-.2,2.2,0,3.2h7l2.3,.2,.2-4c-.6-.4-1.6,.1-2-.8Zm-7.9-6.1h-5.2c-.6-.2-.7-.7-.6-1.3l2.6-7c.2-.3,.5-.4,.9-.4,.3,0,.6,.3,.7,.6l2.3,7.1c0,.5-.3,.7-.7,1Zm85.8,6.5l-5.9-20.9c-1.2,0-2.5,.2-3.7,.2h-7.3l-.5,4c1,.4,3.1-.6,3.5,1l-2.1,6.4-3,8.9-.5,.6c-.5,.1-1.2,0-1.7,.2l-.2,3.5v.2h8.6c.1-1.1,.2-2.3,.1-3.4-.7,0-1.4,0-2.1-.1-.4-.2-.7-.5-.6-1.1l1.3-3.5,.5-.4h7.3c1,1.1,1.3,2.5,2,3.7v.8c-.4,1.2-1.9,.6-2.9,.9-.2,.9-.1,2.1,0,3.2h4.2l5.3,.4c.1-1.3,.3-2.5,.1-3.8-.8-.2-1.9,.1-2.3-.7Zm-7.6-6.6h-5.1c-.5,0-.6-.6-.6-1.1,.8-2.4,1.7-4.9,2.7-7.3,.4-.5,1.3-.3,1.5,.4l2.3,7c.1,.5-.4,.8-.8,1Z"/>
          </g>
        </g>
        <g>
          <path class="uuid-ac9b4b5a-1923-428b-ab0a-0c602b6753dd" d="M159.8,26.5l-.8-.2-2.7-.6-1-.2,.4-1,4.6-11.3,.2-.5h.5l2.8-.3h.7l.2,.6,4.6,11.6,.4,1-1,.2-2.8,.6-.8,.2-.3-.7-.7-2.1h-3.3l-.7,2.1-.3,.7h0Zm2.7-7.7l-.3,.9h.6l-.3-.9h0Z"/>
          <path class="uuid-172bfb3e-7666-4b4d-8f60-997c0c5d487a" d="M163.9,13.3l4.6,11.6-2.8,.6-.9-2.7h-4.6l-1,2.7-2.7-.6,4.6-11.3,2.8-.3m-3,7.5l3.2-.3-1.5-4.2h0l-1.6,4.5m4.2-9.4h-1.3l-2.8,.4h-1.1l-.4,1.1-4.6,11.3-.8,2,2.1,.4,2.7,.6,1.5,.3,.5-1.5,.5-1.5h2l.5,1.5,.5,1.5,1.5-.3,2.8-.6,2.1-.4-.8-2-4.6-11.6-.5-1.3h0Z"/>
        </g>
        <g>
          <path class="uuid-ac9b4b5a-1923-428b-ab0a-0c602b6753dd" d="M200.6,26.5l-.8-.2-2.7-.6-1-.2,.4-1,4.6-11.3,.2-.5h.5l2.8-.3h.7l.2,.6,4.6,11.6,.4,1-1,.2-2.8,.6-.8,.2-.3-.7-.7-2.1h-3.3l-.7,2.1-.3,.7h0Zm2.7-7.7l-.3,.9h.6l-.3-.9h0Z"/>
          <path class="uuid-172bfb3e-7666-4b4d-8f60-997c0c5d487a" d="M204.6,13.3l4.6,11.6-2.8,.6-.9-2.7h-4.6l-1,2.7-2.7-.6,4.6-11.3,2.8-.3m-3,7.5l3.2-.3-1.5-4.2h0l-1.6,4.5m4.2-9.4h-1.3l-2.8,.4h-1.1l-.4,1.1-4.6,11.3-.8,2,2.1,.4,2.7,.6,1.5,.3,.5-1.5,.5-1.5h2l.5,1.5,.5,1.5,1.5-.3,2.8-.6,2.1-.4-.8-2-4.6-11.6-.5-1.3h0Z"/>
        </g>
        <g>
          <path class="uuid-ac9b4b5a-1923-428b-ab0a-0c602b6753dd" d="M233.1,27h0c-1,0-2-.2-2.9-.6-.9-.4-1.6-.9-2.2-1.6-.6-.7-1-1.4-1.3-2.3-.3-.9-.4-1.8-.4-2.8,0-1,.2-2,.5-2.8,.3-.9,.8-1.7,1.4-2.3,.6-.7,1.3-1.2,2.2-1.6,.8-.4,1.8-.5,2.8-.5,1.2,0,2.1,.2,3,.6,.8,.4,1.6,.9,2.2,1.6,.6,.7,1,1.5,1.3,2.4,.3,.9,.4,1.8,.4,2.8,0,1-.2,1.9-.5,2.8-.3,.9-.8,1.6-1.4,2.3-.6,.7-1.3,1.2-2.2,1.5-.8,.4-1.8,.5-2.8,.5h0Zm0-10.5c-.4,0-.8,0-1,.2-.3,.2-.5,.4-.7,.6-.2,.3-.4,.7-.5,1-.1,.4-.2,.9-.2,1.3,0,.4,0,.9,.1,1.3,0,.4,.2,.7,.4,1,.2,.3,.4,.5,.7,.7,.3,.2,.7,.2,1.1,.3,.5,0,.8,0,1.1-.2,.3-.2,.5-.4,.7-.6,.2-.3,.4-.6,.5-1,0-.4,.2-.8,.2-1.3,0-.5,0-.9-.1-1.4,0-.4-.2-.8-.4-1.1-.2-.3-.4-.5-.7-.7-.3-.2-.7-.2-1.1-.2h0Z"/>
          <path class="uuid-172bfb3e-7666-4b4d-8f60-997c0c5d487a" d="M233.1,13.3h0c.9,0,1.8,.2,2.5,.5,.7,.3,1.4,.8,1.9,1.4,.5,.6,.9,1.3,1.2,2.1,.3,.8,.4,1.6,.4,2.5,0,.9-.2,1.7-.4,2.5-.3,.8-.7,1.4-1.2,2-.5,.6-1.2,1-1.9,1.3-.7,.3-1.5,.5-2.5,.5h0c-.9,0-1.8-.2-2.5-.5-.7-.3-1.4-.8-1.9-1.4-.5-.6-.9-1.2-1.2-2-.3-.8-.4-1.6-.4-2.5,0-.9,.2-1.8,.4-2.5,.3-.8,.7-1.5,1.2-2,.5-.6,1.2-1,1.9-1.3,.7-.3,1.5-.5,2.4-.5m0,10.5c.6,0,1.1-.1,1.5-.3,.4-.2,.8-.5,1-.9,.3-.4,.5-.8,.6-1.3,.1-.5,.2-1,.2-1.5,0-.5,0-1.1-.2-1.6-.1-.5-.3-.9-.6-1.3-.3-.4-.6-.7-1-1-.4-.2-.9-.4-1.5-.4h0c-.6,0-1.1,.1-1.5,.3-.4,.2-.8,.5-1,.9-.3,.4-.5,.8-.6,1.3-.1,.5-.2,1-.2,1.6,0,.5,0,1,.2,1.5,.1,.5,.3,.9,.6,1.3,.3,.4,.6,.7,1,.9,.4,.2,.9,.4,1.5,.4h0m0-12.3c-1.1,0-2.2,.2-3.1,.6-1,.4-1.8,1-2.5,1.8-.7,.7-1.2,1.6-1.6,2.6-.3,1-.5,2-.5,3.1,0,1.1,.2,2.1,.5,3.1,.3,1,.8,1.9,1.5,2.6,.7,.8,1.5,1.4,2.5,1.8,1,.4,2.1,.7,3.2,.7h0c1.2,0,2.2-.2,3.2-.6,1-.4,1.8-1,2.5-1.7,.7-.8,1.2-1.6,1.6-2.6,.3-.9,.5-2,.5-3.1,0-1.1-.2-2.2-.5-3.1-.3-1-.8-1.9-1.5-2.6-.7-.8-1.5-1.4-2.5-1.8-1-.4-2.1-.7-3.2-.7h-.1Zm0,10.5c-.3,0-.5,0-.7-.1-.2-.1-.3-.2-.4-.4-.1-.2-.2-.5-.3-.7,0-.3-.1-.7-.1-1.1,0-.4,0-.8,.1-1.1,0-.3,.2-.6,.3-.8,.1-.1,.2-.3,.4-.4,.1,0,.4-.1,.6-.1,.3,0,.6,0,.7,.1,.2,0,.3,.2,.4,.4,.1,.2,.2,.5,.3,.8,0,.4,.1,.7,.1,1.1,0,.4,0,.7-.1,1.1,0,.3-.2,.5-.3,.7,0,.1-.2,.3-.4,.4-.1,0-.4,.1-.7,.1h0Z"/>
        </g>
        <g>
          <path class="uuid-ac9b4b5a-1923-428b-ab0a-0c602b6753dd" d="M250.3,27.1l-.5-.4c-.4-.3-.6-.8-.8-1.3-.2-.3-.3-.8-.7-1.4l-.7-2h-.8v4.5h-4.4v-.9l-.3-12.2v-.9h7.7c.7,0,1.3,.1,1.8,.3,.5,.2,1,.5,1.4,.9,.4,.4,.7,.8,.9,1.4,.2,.5,.3,1.1,.3,1.7,0,.9-.2,1.6-.4,2.2-.3,.9-.6,1.5-2,2.2l.8,1.4c.1,.3,.7,1,.9,1.3,.2,.2,.3,.3,.3,.4l.6,.8-.9,.5-2.8,1.4-.5,.3h0Zm-3.5-9.1h2.1c.4,0,.7,0,.8-.2,.1,0,.2-.3,.2-.7s0-.5-.2-.6c-.1-.1-.4-.2-.8-.2h-2.1v1.7h0Z"/>
          <path class="uuid-172bfb3e-7666-4b4d-8f60-997c0c5d487a" d="M249.8,13.3c.5,0,1,0,1.5,.3,.4,.2,.8,.4,1.1,.7,.3,.3,.6,.7,.7,1.1,.2,.4,.2,.8,.2,1.3,0,.7-.2,1.3-.4,1.9-.3,.7-.3,1.1-1.9,1.9l-.5,.2,1.3,2.2c0,.2,1.2,1.6,1.3,1.7l-2.8,1.4c-.4-.4-.5-1-1.3-2.5l-.9-2.5h-2.3v4.5h-2.7l-.3-12.2h6.9m-3.9,5.5h2.9c.6,0,1.1-.1,1.4-.4,.3-.3,.5-.7,.5-1.3s-.2-1-.5-1.3c-.3-.3-.8-.4-1.4-.4h-2.9v3.4m3.9-7.3h-8.7v1.8l.3,12.2v1.7h6.2v-2.6c.2,.4,.4,.7,.5,1,.3,.6,.5,1.2,1,1.6l.9,.8,1.1-.6,2.8-1.4,1.8-.9-1.2-1.7c0,0-.2-.2-.3-.4-.2-.2-.6-.7-.8-1v-.2l-.5-.6c.9-.6,1.3-1.2,1.6-2.1h0c.2-.7,.5-1.5,.5-2.6s-.1-1.4-.4-2c-.3-.6-.6-1.2-1.1-1.7-.5-.5-1-.8-1.7-1.1-.7-.3-1.4-.4-2.1-.4h0Z"/>
        </g>
        <g>
          <polygon class="uuid-ac9b4b5a-1923-428b-ab0a-0c602b6753dd" points="267.5 26.7 266.8 26.7 257.8 26.7 256.9 26.7 256.9 25.8 256.6 13.9 256.6 13 257.5 13 266.9 12.7 267.8 12.7 267.8 13.6 267.8 15.8 267.8 16.7 266.9 16.7 261.3 16.7 261.3 17.8 266.3 17.6 267.3 17.5 267.3 18.4 267.3 20.5 267.3 21.4 266.4 21.4 261.3 21.4 261.3 22.6 267 22.6 268.1 22.6 267.9 23.6 267.6 25.9 267.5 26.7 267.5 26.7"/>
          <path class="uuid-172bfb3e-7666-4b4d-8f60-997c0c5d487a" d="M266.9,13.6v2.3h-6.4v2.9l5.9-.3v2.1h-5.9v3h6.6l-.3,2.3h-9l-.3-11.9,9.4-.3m1.8-1.8h-1.8l-9.4,.3h-1.8v1.8l.3,11.9v1.7h12.3l.2-1.6,.3-2.3,.3-2h-.9v-4.1h.5v-5.9h0Z"/>
        </g>
        <g>
          <path class="uuid-ac9b4b5a-1923-428b-ab0a-0c602b6753dd" d="M276,27c-.7,0-1.2,0-1.8-.2-.7-.2-1.3-.4-1.9-.8-.6-.4-1-.9-1.4-1.5-.3-.6-.5-1.1-.5-1.9v-.8h.8l1.8-.3c-.5-.2-.9-.4-1.4-.7-.5-.3-.9-.8-1.3-1.3-.4-.6-.6-1.3-.6-2.2s.1-1.3,.4-1.9c.3-.6,.7-1.1,1.2-1.6,.4-.3,1.1-.8,1.9-1.1,.7-.2,1.5-.3,2.5-.3s1.3,0,2,.3c.8,.2,1.5,.7,2,1,.6,.4,1.1,1,1.4,1.7v.2c.4,.5,.5,.7,.6,1.5v.9h-.8l-2.7,.5h-.2c.1,0,.3,.1,.4,.2,.5,.2,1,.4,1.4,.8,.4,.3,.8,.8,1.1,1.3,.3,.5,.4,1.1,.4,1.9s-.2,1.5-.5,2.1c-.3,.6-.8,1-1.3,1.4-.5,.4-1.1,.6-1.7,.8-.6,.2-1.3,.3-1.9,.3h0Zm-1.1-5.1v.3c0,.3,0,.5,.1,.5,0,.1,.1,.2,.2,.2,.1,0,.3,.1,.4,.2h.2c.1,0,.1,0,.2,0s.3,0,.5,0c.1,0,.2,0,.3-.1,0,0,.1-.1,.2-.2v-.3s0,0-.1,0c-.2-.1-.6-.2-1-.3l-1.1-.3h0Zm.8-5.6c-.2,0-.4,0-.6,0-.2,0-.4,0-.5,.1-.1,0-.2,.1-.3,.2,0,0,0,0,0,.2,.2,.3,.4,.4,.6,.5,.3,.1,.6,.2,1,.3,.4,.1,.9,.2,1.3,.4,0,0,0,0,.1,0v-.6c0-.2,0-.2-.1-.4,0-.2-.2-.3-.3-.4-.1-.1-.3-.2-.6-.2-.3,0-.4,0-.6,0h0Z"/>
          <path class="uuid-172bfb3e-7666-4b4d-8f60-997c0c5d487a" d="M275.8,13.2c.7,0,1.1,0,1.8,.2,.6,.2,1.2,.5,1.7,.9,.5,.4,.9,.8,1.2,1.3,.3,.5,.4,.6,.5,1.4l-2.6,.4c0-.4,0-.6-.2-.9-.1-.3-.3-.5-.6-.7-.2-.2-.5-.3-.9-.4-.3,0-.5-.1-.8-.1s-.5,0-.8,0c-.3,0-.5,.1-.8,.2-.2,.1-.4,.3-.6,.5-.2,.2-.2,.5-.2,.8s.1,.6,.3,.8c.2,.2,.5,.4,.8,.5,.3,.1,.7,.3,1.2,.4,.4,.1,.9,.2,1.3,.3,.5,.1,.9,.3,1.3,.4,.4,.2,.8,.4,1.2,.6,.3,.3,.6,.6,.8,1,.2,.4,.3,.9,.3,1.4s-.1,1.2-.4,1.6c-.3,.5-.6,.8-1.1,1.2-.4,.3-.9,.5-1.5,.7-.5,.1-1.1,.2-1.6,.2s-1,0-1.5-.2c-.6-.1-1.1-.4-1.6-.7-.5-.3-.8-.7-1.1-1.2-.3-.5-.4-.8-.4-1.5l2.6-.3c0,.4,0,.7,.2,.9,.1,.2,.3,.4,.5,.6,.2,.1,.5,.2,.7,.3,.3,0,.3,0,.6,0s.4,0,.7,0c.2,0,.4-.1,.6-.2,.2-.1,.3-.3,.4-.4,.1-.2,.2-.4,.2-.7s0-.4-.1-.6c0-.1-.3-.3-.5-.4-.3-.1-.6-.3-1.1-.4-.5-.1-1.1-.3-1.9-.5-.2,0-.5-.1-.9-.2-.4-.1-.8-.3-1.2-.6-.4-.3-.7-.6-1-1.1-.3-.4-.4-1-.4-1.7s.1-1.1,.3-1.6c.2-.5,.5-.9,1-1.2,.4-.3,1-.7,1.6-.9,.6-.2,1.4-.3,2.2-.3m0-1.8c-1,0-1.9,.1-2.7,.4-1,.3-1.7,.9-2.2,1.2-.6,.5-1.1,1.2-1.5,1.9-.3,.7-.5,1.5-.5,2.3s.2,1.9,.7,2.7c.2,.3,.4,.6,.7,.9h-.7v1.7c0,1,.2,1.6,.6,2.4,.4,.7,.9,1.3,1.6,1.8,.7,.5,1.4,.8,2.2,1,.6,.2,1.1,.3,2,.3s1.4,0,2.1-.3c.7-.2,1.4-.5,2-.9,.6-.5,1.2-1,1.6-1.7,.4-.7,.6-1.6,.6-2.5s-.2-1.6-.5-2.3c-.3-.5-.6-.9-1-1.3h.3l1.7-.3-.2-1.7c-.1-.9-.3-1.2-.5-1.8v-.2c-.5-.8-1.1-1.4-1.8-2-.6-.4-1.3-.9-2.3-1.2-.7-.2-1.3-.3-2.2-.3h0Z"/>
        </g>
        <g>
          <polygon class="uuid-ac9b4b5a-1923-428b-ab0a-0c602b6753dd" points="181.7 26.6 180.9 26.5 172.5 26.2 171.7 26.2 171.7 25.4 171.4 13.5 171.4 12.6 172.2 12.5 175.1 12.3 176.1 12.2 176.1 13.1 176.1 22.2 181.2 22.2 182.2 22.2 182.1 23.2 181.8 25.7 181.7 26.6 181.7 26.6"/>
          <path class="uuid-172bfb3e-7666-4b4d-8f60-997c0c5d487a" d="M175.2,13.1v10h6l-.3,2.5-8.3-.3-.3-11.9,3-.3m1.8-2l-2,.2-3,.3-1.7,.2v1.7l.3,11.9v1.7h1.7l8.3,.3h1.6l.2-1.6,.3-2.5,.2-2h-6.2V11.2h0Z"/>
        </g>
        <g>
          <polygon class="uuid-ac9b4b5a-1923-428b-ab0a-0c602b6753dd" points="189.6 27.5 188.6 27.4 185.3 27.3 184.4 27.2 184.4 26.4 184.6 12.5 184.6 11.7 185.4 11.6 194 11.4 194.8 11.3 194.9 12.1 195.4 15.1 195.5 16.2 194.5 16.1 189.2 16 189.2 17.9 192.6 17.9 193.5 17.9 193.5 18.9 193.3 21.4 193.3 22.3 192.4 22.2 189.2 21.9 189.5 26.5 189.6 27.5 189.6 27.5"/>
          <path class="uuid-172bfb3e-7666-4b4d-8f60-997c0c5d487a" d="M194,12.3l.5,3h-6.3v3.6h4.3v2.5l-4.3-.3,.4,5.6-3.3-.2V12.5l8.7-.3m1.5-1.8h-1.6l-8.6,.3h-1.7V28.1h1.6l3.3,.2h2v-1.9l-.4-3.5,2.1,.2,1.8,.2v-1.8l.2-2.5v-1.9h2.2l-.3-2.1-.5-3-.2-1.6h0Z"/>
        </g>
        <g>
          <path class="uuid-ac9b4b5a-1923-428b-ab0a-0c602b6753dd" d="M218.5,27c-.2,0-.3,0-.5,0-3-.2-4.6-1.4-5-3.9h-1.5v-.9l.2-3v-.9h1l4.6,.5h.9v1l-.4,2.3c0,0,0,.1,0,.2h0s.1,0,.3,0c.2,0,.4,0,.4-.8V11.7h1.1l3.5,.4h.9v.9l-.4,8.9c-.1,3.5-1.8,5.2-5.1,5.2h0Z"/>
          <path class="uuid-172bfb3e-7666-4b4d-8f60-997c0c5d487a" d="M219.6,12.6l3.5,.3-.4,8.9c-.1,2.9-1.4,4.3-4.2,4.3s-.3,0-.5,0c-2.9-.2-4.1-1.3-4.2-3.9h-1.4v-3l4.7,.4-.3,2.3c0,.9,.3,1.2,1.2,1.2,0,0,0,0,0,0,.8,0,1.2-.4,1.3-1.7V12.6m-1.6-1.9v7.1h-.5l-4.6-.4-1.9-.2v1.9l-.2,3v1.8h1.6c.6,2.5,2.5,3.8,5.7,4,.2,0,.4,0,.6,0,2.1,0,5.7-.8,6-6.1l.4-8.9v-1.7h-1.6l-3.5-.4-1.9-.2h0Z"/>
        </g>
      </g>
    </g>
  </g>
</svg>